<svg xmlns="http://www.w3.org/2000/svg" version="1.1" xmlns:xlink="http://www.w3.org/1999/xlink" width="1000" height="1000"><style>
    #light-icon {
      display: inline;
    }
    #dark-icon {
      display: none;
    }

    @media (prefers-color-scheme: dark) {
      #light-icon {
        display: none;
      }
      #dark-icon {
        display: inline;
      }
    }
  </style><g id="light-icon"><svg xmlns="http://www.w3.org/2000/svg" version="1.1" xmlns:xlink="http://www.w3.org/1999/xlink" width="1000" height="1000"><g clip-path="url(#SvgjsClipPath1697)"><rect width="1000" height="1000" fill="#ffffff"></rect><g transform="matrix(0.8333333333333334,0,0,0.8333333333333334,166.66666666666663,0)"><svg xmlns="http://www.w3.org/2000/svg" version="1.1" xmlns:xlink="http://www.w3.org/1999/xlink" width="800" height="1200"><svg width="800" height="1200" viewBox="0 0 211.66667 317.5" version="1.1" id="svg1" xml:space="preserve" xmlns:inkscape="http://www.inkscape.org/namespaces/inkscape" xmlns:sodipodi="http://sodipodi.sourceforge.net/DTD/sodipodi-0.dtd" xmlns="http://www.w3.org/2000/svg" xmlns:svg="http://www.w3.org/2000/svg"><sodipodi:namedview id="namedview1" pagecolor="#505050" bordercolor="#ffffff" borderopacity="1" inkscape:showpageshadow="0" inkscape:pageopacity="0" inkscape:pagecheckerboard="1" inkscape:deskcolor="#505050" inkscape:document-units="px"></sodipodi:namedview><defs id="defs1"><clipPath id="SvgjsClipPath1697"><rect width="1000" height="1000" x="0" y="0" rx="500" ry="500"></rect></clipPath></defs><g inkscape:label="Camada 1" inkscape:groupmode="layer" id="layer1"><path style="fill:#000000" d="m 80.400694,233.94302 c -3.10886,-0.78828 -4.26783,-1.62536 -9.7848,-7.06719 l -5.249931,-5.17844 -4.938889,4.89894 c -5.315668,5.27268 -5.730169,5.53304 -8.113889,5.09653 -0.90819,-0.1663 -2.026239,-1.1617 -7.880941,-7.0164 -5.854702,-5.85471 -6.850102,-6.97276 -7.016408,-7.88095 -0.436504,-2.38372 -0.176145,-2.79822 5.096529,-8.11388 l 4.898944,-4.93889 -5.178438,-5.24994 c -5.564995,-5.64183 -6.306083,-6.69228 -7.095947,-10.0581 -1.073315,-4.57367 0.379263,-8.66965 4.527278,-12.76601 2.104468,-2.07826 2.39968,-2.65631 1.865929,-3.65363 -0.588784,-1.10015 -0.875685,-4.21658 -0.566411,-6.15256 0.535032,-3.34917 1.580961,-5.03888 5.810605,-9.38711 2.087028,-2.14554 4.222124,-4.10386 4.744658,-4.35182 1.10279,-0.52331 2.750592,-0.58634 3.634978,-0.13906 0.339046,0.17148 5.474451,5.15586 11.412013,11.07642 l 10.79557,10.76464 20.6714,-20.67141 20.671396,-20.6714 -10.76464,-10.79556 c -5.92055,-5.93757 -10.904936,-11.07297 -11.076406,-11.41202 -0.44729,-0.88439 -0.38425,-2.53219 0.13906,-3.63498 0.24796,-0.52253 2.20627,-2.65763 4.351806,-4.74466 4.29822,-4.180996 5.9591,-5.220926 9.29715,-5.821246 1.94713,-0.35018 3.40603,-0.23357 6.01956,0.48112 l 1.6338,0.44678 2.45842,-2.40067 c 3.26903,-3.19224 5.31,-4.24515 8.94953,-4.61694 2.02736,-0.2071 4.83647,0.38072 6.9587,1.45614 0.99129,0.50232 3.11194,2.37392 6.70026,5.91337 l 5.24993,5.178436 4.93889,-4.898946 c 5.31567,-5.27267 5.73017,-5.53303 8.11389,-5.09653 0.90819,0.16631 2.02624,1.16171 7.88094,7.01641 5.8547,5.854696 6.8501,6.972746 7.01641,7.880936 0.4365,2.38372 0.17614,2.79822 -5.09653,8.1139 l -4.89895,4.93888 5.17844,5.24994 c 5.565,5.64183 6.30609,6.69228 7.09595,10.0581 1.07331,4.57368 -0.37926,8.66965 -4.52728,12.76601 -2.10447,2.07826 -2.39968,2.65631 -1.86593,3.65363 0.58879,1.10016 0.87569,4.21658 0.56641,6.15256 -0.53503,3.34917 -1.58096,5.03889 -5.8106,9.38711 -2.08703,2.14554 -4.22213,4.10386 -4.74466,4.35182 -1.10279,0.52331 -2.75059,0.58635 -3.63498,0.13906 -0.33904,-0.17148 -5.47445,-5.15586 -11.41201,-11.07641 l -10.79557,-10.76465 -20.6714,20.67141 -20.671396,20.6714 10.764636,10.79557 c 5.92055,5.93756 10.90494,11.07296 11.07641,11.41201 0.44729,0.88438 0.38425,2.53219 -0.13906,3.63498 -0.24796,0.52253 -2.20627,2.65763 -4.35181,4.74465 -4.29822,4.181 -5.9591,5.22094 -9.29715,5.82126 -1.94714,0.35017 -3.406026,0.23357 -6.019556,-0.48113 l -1.6338,-0.44678 -2.45842,2.40068 c -3.38472,3.30521 -5.44817,4.33104 -9.23175,4.58951 -1.23568,0.0844 -2.58092,-0.0185 -3.59194,-0.27489 z m 4.65933,-8.43814 c 0.49949,-0.21576 1.66811,-1.17021 2.59694,-2.12099 l 1.68877,-1.72868 -20.94612,-20.94612 -20.94612,-20.94612 -1.728688,1.68877 c -2.488705,2.43124 -3.063448,4.14551 -2.061169,6.14779 0.586411,1.17149 35.701597,36.41062 37.350357,37.48219 1.3924,0.90496 2.63085,1.03448 4.04603,0.42316 z m -28.654554,-12.79824 -3.030544,-3.03055 -2.965254,2.95516 -2.965254,2.95517 3.030877,3.0403 3.030876,3.0403 2.964922,-2.96492 2.964922,-2.96492 z m 46.43455,6.8713 c 0.49949,-0.21591 1.70033,-1.20199 2.66854,-2.19128 l 1.76039,-1.79871 -26.890036,-26.88893 -26.89004,-26.88893 -2.01138,2.07434 c -2.237089,2.30712 -2.643934,3.3368 -2.053479,5.19714 0.275332,0.86748 5.065988,5.80803 24.651849,25.42319 15.82895,15.85263 24.70394,24.54163 25.43899,24.90588 1.334296,0.66122 2.094116,0.69945 3.325166,0.1673 z m 24.82732,-78.13515 -3.02918,-3.0386 -20.67361,20.67217 -20.673596,20.67217 3.02918,3.0386 3.02918,3.0386 20.673596,-20.67217 20.67361,-20.67217 z m 36.95344,16.08606 c 0.74327,-2.47483 1.8872,-1.19039 -24.98205,-28.05083 -19.86239,-19.85589 -24.80908,-24.6592 -25.67839,-24.93407 -1.86129,-0.58854 -2.8909,-0.18147 -5.19713,2.05476 l -2.07435,2.01138 26.88919,26.8903 26.88918,26.89029 1.91785,-1.90175 c 1.24169,-1.23126 2.02991,-2.27488 2.2357,-2.96008 z m 3.81966,-14.95778 c 2.59094,-2.6259 2.96551,-4.21182 1.52005,-6.43585 -1.07157,-1.64876 -36.3107,-36.763946 -37.48219,-37.350366 -2.00221,-1.00224 -3.71655,-0.42752 -6.14755,2.060926 l -1.68853,1.72845 20.87893,20.88037 c 11.48341,11.4842 20.94642,20.88036 21.02891,20.88036 0.0825,0 0.93316,-0.79375 1.89038,-1.76389 z m -4.78556,-31.04926 2.88774,-2.89759 -3.03872,-3.02929 -3.03871,-3.02929 -2.95346,2.96355 -2.95347,2.96355 2.95325,2.96333 c 1.62429,1.62983 3.02129,2.96334 3.10445,2.96334 0.0832,0 1.45067,-1.30392 3.03892,-2.8976 z" id="path262146"></path></g></svg></svg></g></g></svg></g><g id="dark-icon"><svg xmlns="http://www.w3.org/2000/svg" version="1.1" xmlns:xlink="http://www.w3.org/1999/xlink" width="1000" height="1000"><g clip-path="url(#SvgjsClipPath1698)"><rect width="1000" height="1000" fill="#ffffff"></rect><g transform="matrix(0.8333333333333334,0,0,0.8333333333333334,166.66666666666663,0)"><svg xmlns="http://www.w3.org/2000/svg" version="1.1" xmlns:xlink="http://www.w3.org/1999/xlink" width="800" height="1200"><svg width="800" height="1200" viewBox="0 0 211.66667 317.5" version="1.1" id="svg1" xml:space="preserve" xmlns:inkscape="http://www.inkscape.org/namespaces/inkscape" xmlns:sodipodi="http://sodipodi.sourceforge.net/DTD/sodipodi-0.dtd" xmlns="http://www.w3.org/2000/svg" xmlns:svg="http://www.w3.org/2000/svg"><sodipodi:namedview id="namedview1" pagecolor="#505050" bordercolor="#ffffff" borderopacity="1" inkscape:showpageshadow="0" inkscape:pageopacity="0" inkscape:pagecheckerboard="1" inkscape:deskcolor="#505050" inkscape:document-units="px"></sodipodi:namedview><defs id="defs1"><clipPath id="SvgjsClipPath1698"><rect width="1000" height="1000" x="0" y="0" rx="350" ry="350"></rect></clipPath></defs><g inkscape:label="Camada 1" inkscape:groupmode="layer" id="layer1"><path style="fill:#000000" d="m 80.400694,233.94302 c -3.10886,-0.78828 -4.26783,-1.62536 -9.7848,-7.06719 l -5.249931,-5.17844 -4.938889,4.89894 c -5.315668,5.27268 -5.730169,5.53304 -8.113889,5.09653 -0.90819,-0.1663 -2.026239,-1.1617 -7.880941,-7.0164 -5.854702,-5.85471 -6.850102,-6.97276 -7.016408,-7.88095 -0.436504,-2.38372 -0.176145,-2.79822 5.096529,-8.11388 l 4.898944,-4.93889 -5.178438,-5.24994 c -5.564995,-5.64183 -6.306083,-6.69228 -7.095947,-10.0581 -1.073315,-4.57367 0.379263,-8.66965 4.527278,-12.76601 2.104468,-2.07826 2.39968,-2.65631 1.865929,-3.65363 -0.588784,-1.10015 -0.875685,-4.21658 -0.566411,-6.15256 0.535032,-3.34917 1.580961,-5.03888 5.810605,-9.38711 2.087028,-2.14554 4.222124,-4.10386 4.744658,-4.35182 1.10279,-0.52331 2.750592,-0.58634 3.634978,-0.13906 0.339046,0.17148 5.474451,5.15586 11.412013,11.07642 l 10.79557,10.76464 20.6714,-20.67141 20.671396,-20.6714 -10.76464,-10.79556 c -5.92055,-5.93757 -10.904936,-11.07297 -11.076406,-11.41202 -0.44729,-0.88439 -0.38425,-2.53219 0.13906,-3.63498 0.24796,-0.52253 2.20627,-2.65763 4.351806,-4.74466 4.29822,-4.180996 5.9591,-5.220926 9.29715,-5.821246 1.94713,-0.35018 3.40603,-0.23357 6.01956,0.48112 l 1.6338,0.44678 2.45842,-2.40067 c 3.26903,-3.19224 5.31,-4.24515 8.94953,-4.61694 2.02736,-0.2071 4.83647,0.38072 6.9587,1.45614 0.99129,0.50232 3.11194,2.37392 6.70026,5.91337 l 5.24993,5.178436 4.93889,-4.898946 c 5.31567,-5.27267 5.73017,-5.53303 8.11389,-5.09653 0.90819,0.16631 2.02624,1.16171 7.88094,7.01641 5.8547,5.854696 6.8501,6.972746 7.01641,7.880936 0.4365,2.38372 0.17614,2.79822 -5.09653,8.1139 l -4.89895,4.93888 5.17844,5.24994 c 5.565,5.64183 6.30609,6.69228 7.09595,10.0581 1.07331,4.57368 -0.37926,8.66965 -4.52728,12.76601 -2.10447,2.07826 -2.39968,2.65631 -1.86593,3.65363 0.58879,1.10016 0.87569,4.21658 0.56641,6.15256 -0.53503,3.34917 -1.58096,5.03889 -5.8106,9.38711 -2.08703,2.14554 -4.22213,4.10386 -4.74466,4.35182 -1.10279,0.52331 -2.75059,0.58635 -3.63498,0.13906 -0.33904,-0.17148 -5.47445,-5.15586 -11.41201,-11.07641 l -10.79557,-10.76465 -20.6714,20.67141 -20.671396,20.6714 10.764636,10.79557 c 5.92055,5.93756 10.90494,11.07296 11.07641,11.41201 0.44729,0.88438 0.38425,2.53219 -0.13906,3.63498 -0.24796,0.52253 -2.20627,2.65763 -4.35181,4.74465 -4.29822,4.181 -5.9591,5.22094 -9.29715,5.82126 -1.94714,0.35017 -3.406026,0.23357 -6.019556,-0.48113 l -1.6338,-0.44678 -2.45842,2.40068 c -3.38472,3.30521 -5.44817,4.33104 -9.23175,4.58951 -1.23568,0.0844 -2.58092,-0.0185 -3.59194,-0.27489 z m 4.65933,-8.43814 c 0.49949,-0.21576 1.66811,-1.17021 2.59694,-2.12099 l 1.68877,-1.72868 -20.94612,-20.94612 -20.94612,-20.94612 -1.728688,1.68877 c -2.488705,2.43124 -3.063448,4.14551 -2.061169,6.14779 0.586411,1.17149 35.701597,36.41062 37.350357,37.48219 1.3924,0.90496 2.63085,1.03448 4.04603,0.42316 z m -28.654554,-12.79824 -3.030544,-3.03055 -2.965254,2.95516 -2.965254,2.95517 3.030877,3.0403 3.030876,3.0403 2.964922,-2.96492 2.964922,-2.96492 z m 46.43455,6.8713 c 0.49949,-0.21591 1.70033,-1.20199 2.66854,-2.19128 l 1.76039,-1.79871 -26.890036,-26.88893 -26.89004,-26.88893 -2.01138,2.07434 c -2.237089,2.30712 -2.643934,3.3368 -2.053479,5.19714 0.275332,0.86748 5.065988,5.80803 24.651849,25.42319 15.82895,15.85263 24.70394,24.54163 25.43899,24.90588 1.334296,0.66122 2.094116,0.69945 3.325166,0.1673 z m 24.82732,-78.13515 -3.02918,-3.0386 -20.67361,20.67217 -20.673596,20.67217 3.02918,3.0386 3.02918,3.0386 20.673596,-20.67217 20.67361,-20.67217 z m 36.95344,16.08606 c 0.74327,-2.47483 1.8872,-1.19039 -24.98205,-28.05083 -19.86239,-19.85589 -24.80908,-24.6592 -25.67839,-24.93407 -1.86129,-0.58854 -2.8909,-0.18147 -5.19713,2.05476 l -2.07435,2.01138 26.88919,26.8903 26.88918,26.89029 1.91785,-1.90175 c 1.24169,-1.23126 2.02991,-2.27488 2.2357,-2.96008 z m 3.81966,-14.95778 c 2.59094,-2.6259 2.96551,-4.21182 1.52005,-6.43585 -1.07157,-1.64876 -36.3107,-36.763946 -37.48219,-37.350366 -2.00221,-1.00224 -3.71655,-0.42752 -6.14755,2.060926 l -1.68853,1.72845 20.87893,20.88037 c 11.48341,11.4842 20.94642,20.88036 21.02891,20.88036 0.0825,0 0.93316,-0.79375 1.89038,-1.76389 z m -4.78556,-31.04926 2.88774,-2.89759 -3.03872,-3.02929 -3.03871,-3.02929 -2.95346,2.96355 -2.95347,2.96355 2.95325,2.96333 c 1.62429,1.62983 3.02129,2.96334 3.10445,2.96334 0.0832,0 1.45067,-1.30392 3.03892,-2.8976 z" id="path262146"></path></g></svg></svg></g></g></svg></g></svg>