<?xml version="1.0" encoding="utf-8"?>
<!-- Generator: Adobe Illustrator 27.5.0, SVG Export Plug-In . SVG Version: 6.00 Build 0)  -->
<svg version="1.1" xmlns="http://www.w3.org/2000/svg" xmlns:xlink="http://www.w3.org/1999/xlink" x="0px" y="0px"
	 viewBox="0 0 500 500" style="enable-background:new 0 0 500 500;" xml:space="preserve">
<g id="BACKGROUND">
	<rect style="fill:#FFFFFF;" width="501.034" height="500"/>
</g>
<g id="OBJECTS" xmlns:serif="http://www.serif.com/">
	<g>
		<path style="fill:#D3EDF1;" d="M213.133,445.757C98.121,412.24,86.498,383.17,59.81,327.255
			C26.721,257.931,46.562,130.28,103.014,82.239c33.582-28.579,76.777-43.492,110.119-36.676
			c49.237,10.067,59.922,39.577,101.485,54.622c35.075,12.697,81.915-23.19,119.116,0c39.778,24.796,23.916,143.137,17.734,184.103
			c-5.187,34.37-21.661,82.226-41.793,110.421C369.776,450.588,271.954,462.899,213.133,445.757z"/>
		<g>
			<g>
				<g>
					<path style="fill:none;" d="M228.381,61.46c0-4.522-3.665-8.187-8.187-8.187c-26.44,0-109.355,0-135.795,0
						c-4.522,0-8.188,3.665-8.188,8.187c0,34.29,0,166.16,0,200.45c0,4.522,3.666,8.188,8.188,8.188c26.44,0,109.355,0,135.795,0
						c4.522,0,8.187-3.666,8.187-8.188C228.381,227.62,228.381,95.75,228.381,61.46L228.381,61.46z"/>
					<g>
						<path style="fill:#00ACC8;" d="M228.381,61.46c0-4.522-3.665-8.187-8.187-8.187c-26.44,0-109.355,0-135.795,0
							c-4.522,0-8.188,3.665-8.188,8.187c0,34.29,0,166.16,0,200.45c0,4.522,3.666,8.188,8.188,8.188c26.44,0,109.355,0,135.795,0
							c4.522,0,8.187-3.666,8.187-8.188C228.381,227.62,228.381,95.75,228.381,61.46L228.381,61.46z"/>
						<path style="fill:#77E5EA;" d="M220.194,53.273c-25.684,0-104.652,0-133.385,0l-8.428,2.649
							c-0.781,0.848-1.386,1.856-1.755,2.976c29.529-2.149,113.211-5.677,151.755,19.317c0-6.821,0-12.531,0-16.755
							C228.381,56.938,224.716,53.273,220.194,53.273z"/>
					</g>
					<path style="fill:none;stroke:#292929;stroke-width:2;stroke-linecap:round;stroke-linejoin:round;stroke-miterlimit:1.5;" d="
						M228.381,61.46c0-4.522-3.665-8.187-8.187-8.187c-26.44,0-109.355,0-135.795,0c-4.522,0-8.188,3.665-8.188,8.187
						c0,34.29,0,166.16,0,200.45c0,4.522,3.666,8.188,8.188,8.188c26.44,0,109.355,0,135.795,0c4.522,0,8.187-3.666,8.187-8.188
						C228.381,227.62,228.381,95.75,228.381,61.46L228.381,61.46z"/>
				</g>
				
					<circle style="fill:#A3E2F0;stroke:#292929;stroke-width:2;stroke-linecap:round;stroke-linejoin:round;stroke-miterlimit:1.5;" cx="152.296" cy="61.264" r="2.782"/>
				
					<rect x="83.078" y="68.588" style="fill:#80E3F2;stroke:#292929;stroke-width:2;stroke-linecap:round;stroke-linejoin:round;stroke-miterlimit:10;" width="138.435" height="193.484"/>
			</g>
			<g>
				<g>
					<g>
						
							<ellipse style="fill:#53749D;stroke:#292929;stroke-width:2;stroke-linecap:round;stroke-linejoin:round;stroke-miterlimit:1.5;" cx="78.548" cy="127.482" rx="25.09" ry="30.745"/>
						
							<ellipse style="fill:#415685;stroke:#292929;stroke-width:2;stroke-linecap:round;stroke-linejoin:round;stroke-miterlimit:1.5;" cx="83.37" cy="127.988" rx="19.907" ry="27.811"/>
					</g>
					<g>
						<g>
							<path style="fill:#FFFFFF;" d="M67.68,198.836c-12.977-17.62,4.09-60.376,4.572-61.628
								c4.192-10.902,11.803-18.668,15.84-20.903c9.452-5.233,20.117,0.313,20.706,5.544c1.423,12.649-7.343,24.98-10.491,36.757
								c-1.013,3.79-2.05,9.439,1.219,12.709c2.491,2.491,7.896,1.672,10.922,0.484c7.452-2.928,34.608-15.269,35.762-12.452
								c1.196,2.919-9.591,39.849-12.403,41.549c-7.51,4.541-16.715,7.848-31.959,8.246C91.349,209.416,74.341,207.88,67.68,198.836
								z"/>
							<path style="fill:#FCFFFF;" d="M137.909,169.594c0,0-26.837,45.897-71.182,26.268c0.522,1.053,1.115,2.049,1.796,2.974
								c6.661,9.044,23.669,10.58,34.168,10.306c15.244-0.398,24.449-3.705,31.959-8.246c0.864-0.522,2.482-4.377,4.273-9.542
								L137.909,169.594z"/>
						</g>
						<path style="fill:none;stroke:#292929;stroke-width:2;stroke-linecap:round;stroke-linejoin:round;stroke-miterlimit:10;" d="
							M67.68,198.836c-12.977-17.62,4.09-60.376,4.572-61.628c4.192-10.902,11.803-18.668,15.84-20.903
							c9.452-5.233,20.117,0.313,20.706,5.544c1.423,12.649-7.343,24.98-10.491,36.757c-1.013,3.79-2.05,9.439,1.219,12.709
							c2.491,2.491,7.896,1.672,10.922,0.484c7.452-2.928,34.608-15.269,35.762-12.452c1.196,2.919-9.591,39.849-12.403,41.549
							c-7.51,4.541-16.715,7.848-31.959,8.246C91.349,209.416,74.341,207.88,67.68,198.836z"/>
					</g>
					<g>
						
							<ellipse style="fill:#415685;stroke:#292929;stroke-width:2;stroke-linecap:round;stroke-linejoin:round;stroke-miterlimit:1.5;" cx="113.463" cy="131.128" rx="25.09" ry="30.745"/>
						
							<ellipse style="fill:#53749D;stroke:#292929;stroke-width:2;stroke-linecap:round;stroke-linejoin:round;stroke-miterlimit:1.5;" cx="118.285" cy="131.635" rx="19.907" ry="27.811"/>
						
							<ellipse style="fill:#415685;stroke:#292929;stroke-width:2;stroke-linecap:round;stroke-linejoin:round;stroke-miterlimit:1.5;" cx="125.984" cy="131.588" rx="15.092" ry="17.821"/>
						
							<ellipse style="fill:#53749D;stroke:#292929;stroke-width:2;stroke-linecap:round;stroke-linejoin:round;stroke-miterlimit:1.5;" cx="128.885" cy="131.882" rx="11.974" ry="16.121"/>
					</g>
				</g>
				<g>
					<g>
						<path style="fill:#FFE165;" d="M113.247,261.815c-0.604-1.805,13.779-96.988,27.531-102.164
							c5.289-1.991,17.912-2.578,23.99-1.987c8.81,0.857,24.253,3.367,30.288,9.102c8.709,8.275-3.255,95.049-3.255,95.049H113.247z
							"/>
						<path style="fill:#FFBB56;" d="M191.801,261.815c0,0,8.464-61.396,5.969-85.824c-7.037,26.674-28.101,80.367-80.945,61.039
							c-2.358,13.614-3.718,23.79-3.585,24.725c0.022,0.02,0.044,0.04,0.066,0.06C113.424,261.815,191.801,261.815,191.801,261.815z
							"/>
					</g>
					<path style="fill:none;stroke:#292929;stroke-width:2;stroke-linecap:round;stroke-linejoin:round;stroke-miterlimit:10;" d="
						M113.247,261.815c-0.604-1.805,13.779-96.988,27.531-102.164c5.289-1.991,17.912-2.578,23.99-1.987
						c8.81,0.857,24.253,3.367,30.288,9.102c8.709,8.275-3.255,95.049-3.255,95.049H113.247z"/>
				</g>
				<g>
					<g>
						<path style="fill:#FFFFFF;" d="M196.317,201.174c-8.142-12.596-12.934-40.77-4.277-36.848
							c7.995,3.622,53.494,24.604,61.184,40.536c7.691,15.932-2.568,27.903-18.059,29.792c-15.492,1.889-58.158-1.118-63.108-1.828
							c-7.693-1.103-16.168-1.237-13.112-8.164c0,0-7.455-3.275-3.049-7.65c0,0-5.39-7.016,0.585-10.171
							c0,0-5.528-7.998,13.279-8.485c0,0-3.611-12.253,2.566-12.763c6.177-0.51,4.066,7.904,6.296,10.138
							c2.23,2.234,5.224,2.343,7.23,5.34C185.852,201.071,196.749,201.842,196.317,201.174L196.317,201.174z"/>
						<path style="fill:#FCFFFF;" d="M199.199,234.693c13.344,0.619,28.129,0.917,35.965-0.039
							c15.202-1.854,25.352-13.419,18.459-28.906C251.324,215.643,243.49,231.538,199.199,234.693z"/>
					</g>
					<path style="fill:none;stroke:#292929;stroke-width:2;stroke-linecap:round;stroke-linejoin:round;stroke-miterlimit:1.5;" d="
						M196.317,201.174c-8.142-12.596-12.934-40.77-4.277-36.848c7.995,3.622,53.494,24.604,61.184,40.536
						c7.691,15.932-2.568,27.903-18.059,29.792c-15.492,1.889-58.158-1.118-63.108-1.828c-7.693-1.103-16.168-1.237-13.112-8.164
						c0,0-7.455-3.275-3.049-7.65c0,0-5.39-7.016,0.585-10.171c0,0-5.528-7.998,13.279-8.485c0,0-3.611-12.253,2.566-12.763
						c6.177-0.51,4.066,7.904,6.296,10.138c2.23,2.234,5.224,2.343,7.23,5.34C185.852,201.071,196.749,201.842,196.317,201.174
						L196.317,201.174z"/>
					<path style="fill:none;stroke:#292929;stroke-width:2;stroke-linecap:round;stroke-linejoin:round;stroke-miterlimit:1.5;" d="
						M196.027,201.21c9.08-0.119,20.933-1.659,27.027-3.745"/>
				</g>
				<g>
					
						<path style="fill:#FFFFFF;stroke:#292929;stroke-width:2;stroke-linecap:round;stroke-linejoin:round;stroke-miterlimit:1.5;" d="
						M196.358,134.136c0,0,8.691-4.823,9.665,2.463c0.975,7.285-6.502,6.498-9.322,5.01"/>
					<g>
						<g>
							<path style="fill:#FFFFFF;" d="M156.973,180.688c0,0-8.136-12.593-5.874-18.107c2.262-5.514,5.014-3.467,6.037-5.468
								c1.501-2.938,2.091-14.07,1.585-16.776c-0.267-1.428-0.54-2.865-0.789-4.306c-1.301-7.504-1.972-15.115,2.103-22.149
								c4.066-7.018,10.864-13.603,26.393-9.024c15.53,4.579,14.626,16.394,14.755,23.388c0.13,6.995-1.403,28.052-18.108,27.146
								c0,0-6.916-2.175-2.888,7.175C180.187,162.567,172.52,176.247,156.973,180.688L156.973,180.688z"/>
							<path style="fill:#FCFFFF;" d="M186.428,104.858c-15.529-4.579-22.327,2.006-26.393,9.024
								c-3.767,6.502-3.476,13.497-2.384,20.445l1.288,1.061l0,0c0,0,12.302-8.093,14.377-16.056
								c0.681,0.229,17.558,5.145,27.741,3.657C200.641,116.348,198.5,108.417,186.428,104.858z"/>
							<path style="fill:#FCFFFF;" d="M181.426,155.296c-2.914-0.22-7.998-0.936-13.152-3.255
								c-7.131-3.208-2.881,12.861,11.992,11.748c0.508-0.766,0.764-1.222,0.764-1.222
								C178.773,157.327,179.953,155.708,181.426,155.296z"/>
						</g>
						
							<path style="fill:none;stroke:#292929;stroke-width:2;stroke-linecap:round;stroke-linejoin:round;stroke-miterlimit:1.5;" d="
							M156.973,180.688c0,0-8.136-12.593-5.874-18.107c2.262-5.514,5.014-3.467,6.037-5.468c1.501-2.938,2.091-14.07,1.585-16.776
							c-0.267-1.428-0.54-2.865-0.789-4.306c-1.301-7.504-1.972-15.115,2.103-22.149c4.066-7.018,10.864-13.603,26.393-9.024
							c15.53,4.579,14.626,16.394,14.755,23.388c0.13,6.995-1.403,28.052-18.108,27.146c0,0-6.916-2.175-2.888,7.175
							C180.187,162.567,172.52,176.247,156.973,180.688L156.973,180.688z"/>
					</g>
					<g>
						<path style="fill:none;" d="M158.615,138.86c0,0,2.537-6.581,6.451-10.206c3.914-3.625,4.793-9.74,5.707-12.999
							c0,0,22.991,4.387,29.887,2.741c8.628-2.059,20.349-10.631,15.339-22.324c-3.7-8.637-12.049-17.962-23.846-7.982
							c-3.136,2.653-10.403,8.934-13.581,9.559c-7.313,1.437-13.327,2.405-16.247,3.673c-4.039,1.752-10.577,6.047-8.703,17.017
							C155.496,129.309,158.615,138.86,158.615,138.86L158.615,138.86z"/>
						<g>
							<path style="fill:#595959;" d="M158.615,138.86c0,0,2.537-6.581,6.451-10.206c3.914-3.625,4.793-9.74,5.707-12.999
								c0,0,22.991,4.387,29.887,2.741c8.628-2.059,20.349-10.631,15.339-22.324c-3.7-8.637-12.049-17.962-23.846-7.982
								c-3.136,2.653-10.403,8.934-13.581,9.559c-7.313,1.437-13.327,2.405-16.247,3.673c-4.039,1.752-10.577,6.047-8.703,17.017
								C155.496,129.309,158.615,138.86,158.615,138.86L158.615,138.86z"/>
							<path style="fill:#807976;" d="M192.153,88.09c-0.507,0.429-1.13,0.959-1.818,1.538c6.687-0.972,15.088-0.906,17.778,4.744
								c2.852,5.99,4.328,12.801,2.562,19.098c5.072-4.042,8.445-10.114,5.324-17.398C212.299,87.435,203.95,78.11,192.153,88.09z"
								/>
						</g>
						
							<path style="fill:none;stroke:#292929;stroke-width:2;stroke-linecap:round;stroke-linejoin:round;stroke-miterlimit:1.5;" d="
							M158.615,138.86c0,0,2.537-6.581,6.451-10.206c3.914-3.625,4.793-9.74,5.707-12.999c0,0,22.991,4.387,29.887,2.741
							c8.628-2.059,20.349-10.631,15.339-22.324c-3.7-8.637-12.049-17.962-23.846-7.982c-3.136,2.653-10.403,8.934-13.581,9.559
							c-7.313,1.437-13.327,2.405-16.247,3.673c-4.039,1.752-10.577,6.047-8.703,17.017
							C155.496,129.309,158.615,138.86,158.615,138.86L158.615,138.86z"/>
					</g>
					<g>
						
							<path style="fill:none;stroke:#292929;stroke-width:2;stroke-linecap:round;stroke-linejoin:round;stroke-miterlimit:1.5;" d="
							M191.2,133.698c0,0-2.719,3.444,0.786,6.553c0,0-1.059,1.873-3.015,2.554"/>
						
							<path style="fill:#292929;stroke:#292929;stroke-width:2;stroke-linecap:round;stroke-linejoin:round;stroke-miterlimit:1.5;" d="
							M186.507,144.645c0,0-3.936-1.649-7.124-3.555c0,0-2.367,5.498,1.002,6.948C181.866,148.675,184.52,147.654,186.507,144.645z"
							/>
						
							<path style="fill:#292929;stroke:#292929;stroke-width:2;stroke-linecap:round;stroke-linejoin:round;stroke-miterlimit:1.5;" d="
							M196.692,133.729c0.149,0.025,0.218,0.357,0.154,0.74c-0.064,0.384-0.237,0.675-0.386,0.65
							c-0.149-0.025-0.218-0.356-0.154-0.74S196.543,133.704,196.692,133.729z"/>
						
							<path style="fill:#292929;stroke:#292929;stroke-width:2;stroke-linecap:round;stroke-linejoin:round;stroke-miterlimit:1.5;" d="
							M181.756,132.016c0.149,0.024,0.218,0.356,0.154,0.74c-0.064,0.383-0.237,0.675-0.386,0.65
							c-0.149-0.025-0.218-0.357-0.154-0.74C181.434,132.282,181.607,131.991,181.756,132.016z"/>
					</g>
					
						<path style="fill:#FFFFFF;stroke:#292929;stroke-width:2;stroke-linecap:round;stroke-linejoin:round;stroke-miterlimit:1.5;" d="
						M163.25,131.906c0,0-8.691-4.822-9.665,2.463c-0.975,7.285,6.502,6.499,9.322,5.01"/>
				</g>
			</g>
		</g>
		<g>
			<ellipse style="fill:#EFE8CD;" cx="371.287" cy="474.812" rx="104.632" ry="6.474"/>
			<g>
				<g>
					<g>
						
							<ellipse style="fill:#53749D;stroke:#292929;stroke-width:2;stroke-linecap:round;stroke-linejoin:round;stroke-miterlimit:1.5;" cx="256.227" cy="264.838" rx="22.018" ry="26.98"/>
						
							<ellipse style="fill:#415685;stroke:#292929;stroke-width:2;stroke-linecap:round;stroke-linejoin:round;stroke-miterlimit:1.5;" cx="260.459" cy="265.282" rx="17.469" ry="24.405"/>
					</g>
					<g>
						<g>
							<g>
								<path style="fill:#FFFFFF;" d="M308.639,268.139c-3.889,3.76-7.927,5.838-12.422,4.611
									c-17.007-4.641-18.003-19.023-25.083-21.331c-5.497-1.791-9.625,4.921-12.581,8.946c0,0,6.044-13.022,0.724-9.955
									c-5.34,3.078-8.176,13.068-6.098,23.191c2.078,10.123,19.387,32.816,44.399,32.608c16.798-0.139,27.361-7.027,34.006-14.326
									C327.358,281.687,319.4,273.979,308.639,268.139L308.639,268.139z"/>
								<path style="fill:#FCFFFF;" d="M331.584,291.883c-1.719-4.148-4.066-7.877-6.957-11.243l-1.759-1.391
									c0,0-11.795,21.941-46.206,21.552c6.072,3.311,13.12,5.473,20.916,5.408C314.376,306.07,324.939,299.182,331.584,291.883z"
									/>
							</g>
							
								<path style="fill:none;stroke:#292929;stroke-width:2;stroke-linecap:round;stroke-linejoin:round;stroke-miterlimit:1.5;" d="
								M308.639,268.139c-3.889,3.76-7.927,5.838-12.422,4.611c-17.007-4.641-18.003-19.023-25.083-21.331
								c-5.497-1.791-9.625,4.921-12.581,8.946c0,0,6.044-13.022,0.724-9.955c-5.34,3.078-8.176,13.068-6.098,23.191
								c2.078,10.123,19.387,32.816,44.399,32.608c16.798-0.139,27.361-7.027,34.006-14.326
								C327.358,281.687,319.4,273.979,308.639,268.139L308.639,268.139z"/>
						</g>
						<g>
							<g>
								<path style="fill:#FF503F;" d="M331.584,291.883c6.365-6.993,9.134-14.363,10.342-16.54
									c2.468-4.449,8.637-48.364,8.637-48.364s-10.83,2.9-22.029,15.551c-7.194,8.127-13.332,19.264-19.895,25.609
									C314.923,278.352,322.582,286.248,331.584,291.883L331.584,291.883z"/>
								<path style="fill:#DB3B45;" d="M349.941,227.174c-0.818,0.274-2.409,0.869-4.528,1.947
									c-3.518,12.183-12.311,38.795-25.542,53.365c3.614,3.622,7.511,6.766,11.714,9.397v0c6.365-6.993,9.134-14.363,10.342-16.54
									c2.251-4.058,7.581-40.949,8.5-47.398L349.941,227.174z"/>
							</g>
							
								<path style="fill:none;stroke:#292929;stroke-width:2;stroke-linecap:round;stroke-linejoin:round;stroke-miterlimit:1.5;" d="
								M331.584,291.883c6.365-6.993,9.134-14.363,10.342-16.54c2.468-4.449,8.637-48.364,8.637-48.364s-10.83,2.9-22.029,15.551
								c-7.194,8.127-13.332,19.264-19.895,25.609C314.923,278.352,322.582,286.248,331.584,291.883L331.584,291.883z"/>
						</g>
					</g>
					<g>
						
							<ellipse style="fill:#415685;stroke:#292929;stroke-width:2;stroke-linecap:round;stroke-linejoin:round;stroke-miterlimit:1.5;" cx="286.867" cy="268.038" rx="22.018" ry="26.98"/>
						
							<ellipse style="fill:#53749D;stroke:#292929;stroke-width:2;stroke-linecap:round;stroke-linejoin:round;stroke-miterlimit:1.5;" cx="291.099" cy="268.482" rx="17.469" ry="24.405"/>
						
							<ellipse style="fill:#415685;stroke:#292929;stroke-width:2;stroke-linecap:round;stroke-linejoin:round;stroke-miterlimit:1.5;" cx="297.855" cy="268.442" rx="13.244" ry="15.639"/>
						
							<ellipse style="fill:#53749D;stroke:#292929;stroke-width:2;stroke-linecap:round;stroke-linejoin:round;stroke-miterlimit:1.5;" cx="300.4" cy="268.699" rx="10.508" ry="14.147"/>
					</g>
				</g>
				<g>
					<g>
						<path style="fill:#FF503F;" d="M402.953,234.524c-4.221-15.448-59.708-12.943-62.455-0.107
							c-4.681,21.869-6.73,80.14-2.872,92.833c6.74,22.173,63.127,19.509,67.104-2.814
							C405.941,317.639,409.576,258.76,402.953,234.524L402.953,234.524z"/>
						<path style="fill:#FD3844;" d="M335.621,304.227c0.146,10.465,0.775,18.974,1.989,22.967c0.085,0.278,0.183,0.55,0.283,0.82
							c8.145,5.227,14.202,8.917,14.202,8.917l43.129-0.53c5.04-2.973,8.595-6.998,9.49-12.021
							c1.089-6.111,4.134-54.309-0.073-81.593l-9.875,2.912C394.766,245.699,400.654,321.188,335.621,304.227z"/>
					</g>
					<path style="fill:none;stroke:#292929;stroke-width:2;stroke-linecap:round;stroke-linejoin:round;stroke-miterlimit:1.5;" d="
						M402.937,234.468c-4.221-15.448-59.708-12.943-62.455-0.107c-4.681,21.869-6.73,80.14-2.872,92.833
						c6.74,22.173,63.127,19.509,67.104-2.814C405.925,317.583,409.559,258.704,402.937,234.468L402.937,234.468z"/>
				</g>
				<g>
					<g>
						
							<path style="fill:#FFFFFF;stroke:#292929;stroke-width:2;stroke-linecap:round;stroke-linejoin:round;stroke-miterlimit:1.5;" d="
							M407.845,389.558c0.931,35.134,1.831,69.156,1.831,69.483c0,0.678-25.065,6.674-29.663,1.34
							c-1.9-2.203-4.911-38.133-7.133-68.376C384.225,388.325,395.782,386.601,407.845,389.558z"/>
						
							<path style="fill:#FD3844;stroke:#292929;stroke-width:2;stroke-linecap:round;stroke-linejoin:round;stroke-miterlimit:10;" d="
							M410.605,462.569c0,0,3.184-10.609,2.751-13.579c-0.432-2.97-17.962-0.853-18.541,2.922
							c-0.58,3.774,4.369,12.354,4.369,12.354L410.605,462.569L410.605,462.569z"/>
						
							<path style="fill:#FD3844;stroke:#292929;stroke-width:2;stroke-linecap:round;stroke-linejoin:round;stroke-miterlimit:10;" d="
							M380.284,460.742c0,0-10.376,14.098-2.057,14.75s47.462,0.005,48.683-1.522c2.059-2.576-10.413-15.427-16.672-14.038
							C398.484,462.542,380.284,460.742,380.284,460.742L380.284,460.742z"/>
						<g>
							
								<path style="fill:#FFFFFF;stroke:#292929;stroke-width:2;stroke-linecap:round;stroke-linejoin:round;stroke-miterlimit:1.5;" d="
								M407.897,459.297c-3.145,0.456-5.566,1.743-5.402,2.873c0.164,1.129,2.85,1.675,5.996,1.219
								c3.146-0.457,5.567-1.744,5.403-2.873C413.73,459.386,411.043,458.84,407.897,459.297L407.897,459.297z"/>
							
								<path style="fill:#FFFFFF;stroke:#292929;stroke-width:2;stroke-linecap:round;stroke-linejoin:round;stroke-miterlimit:1.5;" d="
								M412.681,462.397c-3.13,0.551-5.511,1.91-5.313,3.034c0.197,1.124,2.899,1.589,6.03,1.038
								c3.13-0.551,5.511-1.911,5.314-3.034C418.514,462.311,415.812,461.846,412.681,462.397z"/>
							
								<path style="fill:#FFFFFF;stroke:#292929;stroke-width:2;stroke-linecap:round;stroke-linejoin:round;stroke-miterlimit:1.5;" d="
								M416.687,465.925c-3.158,0.364-5.615,1.58-5.484,2.714c0.13,1.133,2.8,1.758,5.958,1.393
								c3.157-0.364,5.615-1.581,5.484-2.714C422.514,466.184,419.844,465.56,416.687,465.925z"/>
						</g>
					</g>
					<g>
						
							<path style="fill:#FFFFFF;stroke:#292929;stroke-width:2;stroke-linecap:round;stroke-linejoin:round;stroke-miterlimit:1.5;" d="
							M329.107,388.53c11.488-1.855,23.013-1.775,34.632,3.198c-4.734,30.428-10.738,66.736-12.701,68.578
							c-3.536,3.319-29.343-0.659-29.343-0.659S325.42,424.24,329.107,388.53z"/>
						
							<path style="fill:#FD3844;stroke:#292929;stroke-width:2;stroke-linecap:round;stroke-linejoin:round;stroke-miterlimit:10;" d="
							M331.179,460.856c0,0,8.058-10.028,4.528-11.716c-4.536-2.169-13.539-2.739-15.623-1.206
							c-2.084,1.534,1.367,8.92,2.176,11.595C323.07,462.204,331.179,460.856,331.179,460.856z"/>
						
							<path style="fill:#FD3844;stroke:#292929;stroke-width:2;stroke-linecap:round;stroke-linejoin:round;stroke-miterlimit:10;" d="
							M351.357,459.376c0,0,9.967,14.072,1.69,15.127c-8.277,1.054-50.074,1.729-51.665,0.592
							c-5.208-3.721,15.025-18.075,21.279-16.667C330.764,460.252,351.357,459.376,351.357,459.376L351.357,459.376z"/>
						<g>
							
								<path style="fill:#FFFFFF;stroke:#292929;stroke-width:2;stroke-linecap:round;stroke-linejoin:round;stroke-miterlimit:1.5;" d="
								M322.823,458.523c3.145,0.456,5.566,1.743,5.402,2.873c-0.163,1.129-2.85,1.675-5.996,1.219
								c-3.146-0.457-5.566-1.744-5.403-2.873C316.99,458.613,319.677,458.066,322.823,458.523z"/>
							
								<path style="fill:#FFFFFF;stroke:#292929;stroke-width:2;stroke-linecap:round;stroke-linejoin:round;stroke-miterlimit:1.5;" d="
								M317.494,461.645c3.156,0.379,5.608,1.607,5.472,2.74c-0.136,1.133-2.809,1.745-5.965,1.366
								c-3.156-0.38-5.607-1.607-5.471-2.74C311.666,461.878,314.339,461.266,317.494,461.645z"/>
							
								<path style="fill:#FFFFFF;stroke:#292929;stroke-width:2;stroke-linecap:round;stroke-linejoin:round;stroke-miterlimit:1.5;" d="
								M314.034,465.151c3.157,0.364,5.614,1.58,5.484,2.714c-0.131,1.134-2.801,1.758-5.959,1.393
								c-3.157-0.364-5.615-1.58-5.484-2.714C308.206,465.41,310.876,464.786,314.034,465.151z"/>
						</g>
					</g>
					<g>
						<path style="fill:none;" d="M363.739,391.728c-12.86,1.579-24.09-0.117-34.632-3.198c3.611-34.975,7.186-70.241,7.186-72.808
							c0,0,63.069-0.982,69.517-2.854c0,0,1.036,38.986,2.035,76.69c-11.141,3.101-22.804,3.881-34.965,2.447
							c0-0.146-2.869-41.823-2.869-41.823S367.218,369.367,363.739,391.728L363.739,391.728z"/>
						<g>
							<path style="fill:#585858;" d="M363.739,391.728c-12.86,1.579-24.09-0.117-34.632-3.198
								c3.611-34.975,7.186-70.241,7.186-72.808c0,0,63.069-0.982,69.517-2.854c0,0,1.036,38.986,2.035,76.69
								c-11.141,3.101-22.804,3.881-34.965,2.447c0-0.146-2.869-41.823-2.869-41.823S367.218,369.367,363.739,391.728
								L363.739,391.728z"/>
							<g>
								<path style="fill:#505050;" d="M363.739,391.728L363.739,391.728c0.748-4.809,1.464-9.469,2.128-13.824
									c-9.828,3.471-21.709,5.096-36.047,3.713c-0.237,2.299-0.475,4.607-0.713,6.913
									C339.649,391.611,350.879,393.307,363.739,391.728z"/>
								<path style="fill:#505050;" d="M406.478,338.023c-5.2,12.163-15.434,28.505-34.725,37.49
									c0.601,8.756,1.127,16.429,1.127,16.492c12.161,1.434,23.824,0.654,34.965-2.447
									C407.356,371.115,406.859,352.367,406.478,338.023z"/>
							</g>
						</g>
						
							<path style="fill:none;stroke:#292929;stroke-width:2;stroke-linecap:round;stroke-linejoin:round;stroke-miterlimit:1.5;" d="
							M363.739,391.728c-12.86,1.579-24.09-0.117-34.632-3.198c3.611-34.975,7.186-70.241,7.186-72.808
							c0,0,63.069-0.982,69.517-2.854c0,0,1.036,38.986,2.035,76.69c-11.141,3.101-22.804,3.881-34.965,2.447
							c0-0.146-2.869-41.823-2.869-41.823S367.218,369.367,363.739,391.728L363.739,391.728z"/>
					</g>
				</g>
				<g>
					<g>
						<g>
							<path style="fill:#FFFFFF;" d="M421.774,283.163c3.745,3.308,7.098,10.529,3.69,14.657
								c-3.183,3.855-9.522,4.873-13.702,5.493c-3.796,0.563-9.48-1.86-11.376-1.775c-7.529,0.336-13.671,5.198-13.758,8.939
								c-0.038,1.669,1.363,1.966,2.762,1.596c2.647-0.699,9.457-4.85,9.918-4.594c0.038,0.021-12.21,8.496-10.742,11.254
								c0.657,1.233,4.055,0.002,5.016-0.439c2.014-0.923,7.538-4.864,8.044-4.611c0.147,0.073-6.917,7.163-8.05,9.725
								c-0.377,0.852-0.897,2.184-0.343,3.091c0.736,1.205,2.696,0.104,3.549-0.351c2.408-1.283,8.547-6.08,9.224-5.674
								c0.002,0.001-7.842,7.85-7.142,10.619c0.324,1.279,1.699,0.884,2.576,0.494c2.068-0.922,3.376-2.355,5.362-3.348
								c0.017-0.009,2.039,1.622,19.475-0.559c17.389-2.175,32.76-14.213,36.06-31.285c1.488-7.693-1.25-15.432-4.594-22.286
								c-2.921-5.988-7.226-11.675-12.272-16.877C434.757,264.564,426.769,273.165,421.774,283.163L421.774,283.163z"/>
							<path style="fill:#FCFFFF;" d="M462.337,296.395c0.858-4.437,0.306-8.887-0.952-13.176
								c-2.826,13.212-11.329,32.092-36.118,44.584c0.334-0.04,0.664-0.08,1.011-0.123
								C443.666,325.505,459.037,313.467,462.337,296.395z"/>
						</g>
						<path style="fill:none;stroke:#292929;stroke-width:2;stroke-linecap:round;stroke-linejoin:round;stroke-miterlimit:10;" d="
							M421.774,283.163c3.745,3.308,7.098,10.529,3.69,14.657c-3.183,3.855-9.522,4.873-13.702,5.493
							c-3.796,0.563-9.48-1.86-11.376-1.775c-7.529,0.336-13.671,5.198-13.758,8.939c-0.038,1.669,1.363,1.966,2.762,1.596
							c2.647-0.699,9.457-4.85,9.918-4.594c0.038,0.021-12.21,8.496-10.742,11.254c0.657,1.233,4.055,0.002,5.016-0.439
							c2.014-0.923,7.538-4.864,8.044-4.611c0.147,0.073-6.917,7.163-8.05,9.725c-0.377,0.852-0.897,2.184-0.343,3.091
							c0.736,1.205,2.696,0.104,3.549-0.351c2.408-1.283,8.547-6.08,9.224-5.674c0.002,0.001-7.842,7.85-7.142,10.619
							c0.324,1.279,1.699,0.884,2.576,0.494c2.068-0.922,3.376-2.355,5.362-3.348c0.017-0.009,2.039,1.622,19.475-0.559
							c17.389-2.175,32.76-14.213,36.06-31.285c1.488-7.693-1.25-15.432-4.594-22.286c-2.921-5.988-7.226-11.675-12.272-16.877
							C434.757,264.564,426.769,273.165,421.774,283.163L421.774,283.163z"/>
					</g>
					
						<path style="fill:#FF503F;stroke:#292929;stroke-width:2;stroke-linecap:round;stroke-linejoin:round;stroke-miterlimit:10;" d="
						M396.073,266.46c5.963,9.003,18.129,10.011,25.701,16.703c9.837-5.305,17.638-14.117,23.697-25.931
						c-8.074-8.324-18.042-15.408-27.26-20.501c-4.91-2.713-14.992-7.72-26.91-10.815c-1.048-0.272-0.517,11.327,0.812,22.292
						C393.099,256.339,394.525,264.122,396.073,266.46L396.073,266.46z"/>
				</g>
				<g>
					
						<path style="fill:#FFFFFF;stroke:#292929;stroke-width:2;stroke-linecap:round;stroke-linejoin:round;stroke-miterlimit:10;" d="
						M354.501,200.184c-4.123-3.504-5.862-1.656-7.188,0.201c-3.587,5.022,2.966,10.83,7.432,7.555"/>
					<g>
						<g>
							<path style="fill:#FFFFFF;" d="M381.905,226.451c-2.475-3.424-1.75-6.811,0.234-11.509
								c5.094-12.062,6.835-14.748,6.349-22.969c-0.243-4.111-1.498-8.656-4.294-11.798c-5.137-5.773-14.934-5.961-21.275-2.361
								c-7.896,4.484-10.58,14.738-10.779,24.094c-0.094,4.446,0.947,10.108,4.44,13.306c3.608,3.303,5.389,3.297,5.104,5.437
								c-1.149,8.625-3.458,5.324-5.711,7.775c-3.315,3.608-1.078,10.988,1.165,14.265c4.731,6.91,13.875,6.038,19.827,1.464
								C380.689,241.294,386.056,232.192,381.905,226.451L381.905,226.451z"/>
							<g>
								<path style="fill:#FCFFFF;" d="M388.488,191.973c-0.189-3.194-1-6.642-2.659-9.498l-18.764-6.008
									c0,0-2.93,1.247-6.412,2.924c-2.893,2.366-4.909,5.632-6.249,9.309c7.684,0.913,20.776,0.658,20.776,0.658
									c1.681,6.628,8.105,12.882,11.181,15.572C388.186,200.262,388.8,197.255,388.488,191.973z"/>
								<path style="fill:#FCFFFF;" d="M374.28,219.572c-5.013,1.599-9.612,0.415-12.185-0.585c0.379,0.449,0.53,0.93,0.432,1.664
									c-0.487,3.655-1.182,5.165-1.993,5.882C375.064,233.882,381.101,217.396,374.28,219.572z"/>
							</g>
						</g>
						<path style="fill:none;stroke:#292929;stroke-width:2;stroke-linecap:round;stroke-linejoin:round;stroke-miterlimit:10;" d="
							M381.905,226.451c-2.475-3.424-1.75-6.811,0.234-11.509c5.094-12.062,6.835-14.748,6.349-22.969
							c-0.243-4.111-1.498-8.656-4.294-11.798c-5.137-5.773-14.934-5.961-21.275-2.361c-7.896,4.484-10.58,14.738-10.779,24.094
							c-0.094,4.446,0.947,10.108,4.44,13.306c3.608,3.303,5.389,3.297,5.104,5.437c-1.149,8.625-3.458,5.324-5.711,7.775
							c-3.315,3.608-1.078,10.988,1.165,14.265c4.731,6.91,13.875,6.038,19.827,1.464
							C380.689,241.294,386.056,232.192,381.905,226.451L381.905,226.451z"/>
					</g>
					
						<path style="fill:#595959;stroke:#292929;stroke-width:2.06;stroke-linecap:round;stroke-linejoin:round;stroke-miterlimit:1.5;" d="
						M390.393,189.756c0.307,8.427-4.01,17.586-4.023,17.532c-1.942-8.131-5.531-8.866-7.31-13.466
						c-1.157-2.992-1.693-6.198-2.206-8.366c-0.094-0.397-20.8-0.022-21.414-0.499c-1.716-1.334-2.866-4.952-3.57-6.886
						c-0.793-2.178-1.642-5.107-0.567-7.332c1.282-2.653,4.623,0.192,5.881,1.438c0.172,0.17,1.359,1.716,1.591,1.655
						c0.154-0.041-0.459-2.003-0.484-2.1c-0.382-1.51-1.563-6.298,0.84-6.906c2.604-0.657,5.122,3.178,6.301,4.907
						c0.322,0.473,0.775,1.62,1.317,1.865c0.267,0.121,0.804-2.668,0.86-2.858c0.503-1.703,1.921-5.683,4.321-5.377
						c2.371,0.302,3.586,4.509,4.296,6.319c0.145,0.371,0.567,2.237,1.037,2.368c0.11,0.03,0.484-1.74,0.522-1.884
						c0.394-1.473,1.908-4.684,3.972-4.035c2.987,0.939,4.396,6.097,5.479,8.617C389.247,179.425,390.205,184.602,390.393,189.756
						L390.393,189.756z"/>
					<g>
						
							<path style="fill:none;stroke:#292929;stroke-width:2;stroke-linecap:round;stroke-linejoin:round;stroke-miterlimit:1.5;" d="
							M361.099,192.806c0,0-3.469,8.227,0.306,9.666"/>
						
							<path style="fill:#292929;stroke:#292929;stroke-width:2;stroke-linecap:round;stroke-linejoin:round;stroke-miterlimit:1.5;" d="
							M361.743,207.156c0.324-0.978,7.514-3.483,8.583-3.678c0.733-0.134,2.536,3.989-1.943,5.871
							C363.486,211.407,361.419,208.135,361.743,207.156L361.743,207.156z"/>
						
							<path style="fill:#292929;stroke:#292929;stroke-width:2;stroke-linecap:round;stroke-linejoin:round;stroke-miterlimit:1.5;" d="
							M368.195,195.39c0.189,0.029,0.291,0.394,0.227,0.814c-0.064,0.421-0.269,0.739-0.458,0.711
							c-0.19-0.029-0.291-0.394-0.227-0.815C367.801,195.679,368.006,195.361,368.195,195.39L368.195,195.39z"/>
						
							<path style="fill:#292929;stroke:#292929;stroke-width:2;stroke-linecap:round;stroke-linejoin:round;stroke-miterlimit:1.5;" d="
							M356.362,195.536c0.189,0.029,0.291,0.394,0.227,0.814c-0.064,0.421-0.27,0.739-0.459,0.711
							c-0.189-0.029-0.29-0.394-0.226-0.815S356.173,195.507,356.362,195.536L356.362,195.536z"/>
					</g>
					
						<path style="fill:#FFFFFF;stroke:#292929;stroke-width:2;stroke-linecap:round;stroke-linejoin:round;stroke-miterlimit:10;" d="
						M383.319,202.1c4.123-3.504,5.862-1.656,7.188,0.201c3.587,5.022-2.966,10.83-7.431,7.555"/>
				</g>
			</g>
		</g>
		<g>
			<g>
				<g>
					
						<path style="fill:#34568B;stroke:#000000;stroke-width:2;stroke-linecap:round;stroke-linejoin:round;stroke-miterlimit:10;" d="
						M351.388,62.403c0-10.261-8.332-18.592-18.593-18.592h-63.197c-10.261,0-18.592,8.331-18.592,18.592v37.186
						c0,10.262,8.331,18.593,18.592,18.593h63.197c10.261,0,18.593-8.331,18.593-18.593V62.403z"/>
					<path style="fill:#FFFFFF;" d="M349.709,62.624c0-9.469-7.688-17.157-17.156-17.157H269.98
						c-9.469,0-17.156,7.688-17.156,17.157v34.312c0,9.469,7.687,17.156,17.156,17.156h62.573c9.468,0,17.156-7.687,17.156-17.156
						V62.624z"/>
				</g>
				<g>
					<ellipse style="fill:#F25142;" cx="301.266" cy="78.245" rx="23.243" ry="23.03"/>
					<path style="fill:#FFFFFF;" d="M305.577,97.003c-10.449,2.358-20.864-4.134-23.243-14.487
						c-2.38-10.353,4.172-20.672,14.621-23.03c10.45-2.357,20.865,4.134,23.244,14.488
						C322.578,84.327,316.026,94.646,305.577,97.003L305.577,97.003z"/>
					<path style="fill:none;stroke:#2D2929;stroke-width:2;stroke-linecap:round;stroke-linejoin:round;stroke-miterlimit:1.5;" d="
						M301.266,64.588v13.657"/>
					
						<path style="fill:none;stroke:#2D2929;stroke-width:1.27;stroke-linecap:round;stroke-linejoin:round;stroke-miterlimit:1.5;" d="
						M301.266,60.316v1.526"/>
					
						<path style="fill:none;stroke:#2D2929;stroke-width:1.27;stroke-linecap:round;stroke-linejoin:round;stroke-miterlimit:1.5;" d="
						M301.266,94.618v1.526"/>
					
						<path style="fill:none;stroke:#2D2929;stroke-width:1.27;stroke-linecap:round;stroke-linejoin:round;stroke-miterlimit:1.5;" d="
						M319.543,78.245l-1.539,0.032"/>
					
						<path style="fill:none;stroke:#2D2929;stroke-width:1.27;stroke-linecap:round;stroke-linejoin:round;stroke-miterlimit:1.5;" d="
						M284.542,78.277l-1.539,0.033"/>
					<path style="fill:none;stroke:#2D2929;stroke-width:2;stroke-linecap:round;stroke-linejoin:round;stroke-miterlimit:1.5;" d="
						M308.961,73.515l-7.695,4.795"/>
				</g>
			</g>
			<g>
				<g>
					
						<path style="fill:#34568B;stroke:#000000;stroke-width:2;stroke-linecap:round;stroke-linejoin:round;stroke-miterlimit:10;" d="
						M460.549,108.69c0-9.239-7.501-16.74-16.74-16.74h-57.381c-9.239,0-16.741,7.501-16.741,16.74v33.481
						c0,9.239,7.502,16.74,16.741,16.74h57.381c9.239,0,16.74-7.501,16.74-16.74V108.69z"/>
					<path style="fill:#FFFFFF;" d="M459.677,108.257c0-8.632-7.009-15.641-15.642-15.641h-57.048
						c-8.633,0-15.642,7.009-15.642,15.641v31.284c0,8.633,7.009,15.641,15.642,15.641h57.048c8.633,0,15.642-7.008,15.642-15.641
						V108.257z"/>
				</g>
				<g>
					<path style="fill:#F25142;" d="M415.061,113.84c4.634-8.251,13.903-8.251,18.537-4.126c4.635,4.126,4.635,12.377,0,20.628
						c-3.244,6.188-11.585,12.376-18.537,16.502c-6.951-4.126-15.293-10.314-18.537-16.502c-4.634-8.251-4.634-16.502,0-20.628
						C401.159,105.589,410.427,105.589,415.061,113.84z"/>
					<path style="fill:none;stroke:#2D2929;stroke-width:2;stroke-linecap:round;stroke-linejoin:round;stroke-miterlimit:1.5;" d="
						M386.839,127.68h18.622l4.747-10.992l6.483,17.231l5.1-10.79l4.14,4.551h16.177"/>
				</g>
			</g>
		</g>
		<g>
			<ellipse style="fill:#EFE8CD;" cx="157.297" cy="466.698" rx="102.326" ry="5.794"/>
			<g>
				<g>
					
						<path style="fill:#415685;stroke:#292929;stroke-width:2.08;stroke-linecap:round;stroke-linejoin:round;stroke-miterlimit:1.5;" d="
						M117.245,299.589c0-0.983-0.798-1.78-1.781-1.78h-3.56c-0.983,0-1.781,0.797-1.781,1.78v155.948c0,0.983,0.798,1.78,1.781,1.78
						h3.56c0.983,0,1.781-0.797,1.781-1.78V299.589z"/>
					
						<path style="fill:#415685;stroke:#292929;stroke-width:2.08;stroke-linecap:round;stroke-linejoin:round;stroke-miterlimit:1.5;" d="
						M201.722,299.589c0-0.983-0.797-1.78-1.78-1.78h-3.561c-0.982,0-1.78,0.797-1.78,1.78v155.948c0,0.983,0.798,1.78,1.78,1.78
						h3.561c0.983,0,1.78-0.797,1.78-1.78V299.589z"/>
					
						<path style="fill:#415685;stroke:#292929;stroke-width:2.08;stroke-linecap:round;stroke-linejoin:round;stroke-miterlimit:1.5;" d="
						M220.779,457.933c0-1.697-1.377-3.074-3.074-3.074H93.424c-1.697,0-3.074,1.377-3.074,3.074v6.147
						c0,1.697,1.377,3.074,3.074,3.074h124.281c1.697,0,3.074-1.377,3.074-3.074V457.933z"/>
				</g>
				<g>
					<g>
						
							<ellipse style="fill:#53749D;stroke:#292929;stroke-width:2;stroke-linecap:round;stroke-linejoin:round;stroke-miterlimit:1.5;" cx="236.923" cy="363.451" rx="23.472" ry="41.538"/>
						
							<ellipse style="fill:#415685;stroke:#292929;stroke-width:2;stroke-linecap:round;stroke-linejoin:round;stroke-miterlimit:1.5;" cx="232.411" cy="364.135" rx="18.623" ry="37.574"/>
					</g>
					
						<path style="fill:#415685;stroke:#292929;stroke-width:2.08;stroke-linecap:round;stroke-linejoin:round;stroke-miterlimit:1.5;" d="
						M230.726,362.043c0-0.776-0.631-1.407-1.408-1.407H91.757c-0.776,0-1.407,0.631-1.407,1.407v2.815
						c0,0.777,0.631,1.407,1.407,1.407h137.561c0.777,0,1.408-0.63,1.408-1.407V362.043z"/>
					<g>
						
							<ellipse style="fill:#415685;stroke:#292929;stroke-width:2;stroke-linecap:round;stroke-linejoin:round;stroke-miterlimit:1.5;" cx="78.657" cy="363.898" rx="22.666" ry="41.09"/>
						
							<ellipse style="fill:#53749D;stroke:#292929;stroke-width:2;stroke-linecap:round;stroke-linejoin:round;stroke-miterlimit:1.5;" cx="74.3" cy="364.575" rx="17.983" ry="37.169"/>
						
							<ellipse style="fill:#415685;stroke:#292929;stroke-width:2;stroke-linecap:round;stroke-linejoin:round;stroke-miterlimit:1.5;" cx="67.346" cy="364.513" rx="13.634" ry="23.818"/>
						
							<ellipse style="fill:#53749D;stroke:#292929;stroke-width:2;stroke-linecap:round;stroke-linejoin:round;stroke-miterlimit:1.5;" cx="64.725" cy="364.905" rx="10.817" ry="21.545"/>
					</g>
				</g>
				<g>
					
						<path style="fill:#415685;stroke:#292929;stroke-width:2.08;stroke-linecap:round;stroke-linejoin:round;stroke-miterlimit:1.5;" d="
						M198.162,373.419c0,0,10.817-4.266,11.602-16.963c0-0.001,0-0.001,0-0.001c0.047-0.771-0.226-1.528-0.755-2.091
						c-0.529-0.562-1.268-0.882-2.04-0.882c-1.21,0-2.356,0-2.356,0s0.82,11.609-6.451,12.77V373.419L198.162,373.419z"/>
					
						<path style="fill:#415685;stroke:#292929;stroke-width:2.08;stroke-linecap:round;stroke-linejoin:round;stroke-miterlimit:1.5;" d="
						M113.684,373.866c0,0,10.818-4.265,11.602-16.963c0,0,0,0,0-0.001c0.048-0.771-0.225-1.527-0.755-2.09
						c-0.529-0.563-1.267-0.882-2.04-0.882c-1.21,0-2.355,0-2.355,0s0.819,11.608-6.452,12.769V373.866z"/>
				</g>
			</g>
		</g>
	</g>
</g>
</svg>
