<?xml version="1.0" encoding="utf-8"?>
<!-- Generator: Adobe Illustrator 27.5.0, SVG Export Plug-In . SVG Version: 6.00 Build 0)  -->
<svg version="1.1" xmlns="http://www.w3.org/2000/svg" xmlns:xlink="http://www.w3.org/1999/xlink" x="0px" y="0px"
	 viewBox="0 0 500 500" style="enable-background:new 0 0 500 500;" xml:space="preserve">
<g id="BACKGROUND">
	<rect style="fill:#FFFFFF;" width="500" height="500"/>
</g>
<g id="OBJECTS">
	<g>
		<defs>
			<path id="SVGID_1_" d="M72.276,448.357h345.499c21.836-50.037,34.432-107.266,28.151-162.731
				c-5.672-50.088-23.846-99.222-55.434-134.5c-46.98-52.467-119.387-68.327-183.392-51.625
				c-47.96,12.515-93.445,43.051-120.788,89.841c-21.68,37.098-30.967,82.339-31.901,126.953
				C53.478,360.909,63.659,404.832,72.276,448.357z"/>
		</defs>
		<clipPath id="SVGID_00000110436892766482406020000017890688738489038485_">
			<use xlink:href="#SVGID_1_"  style="overflow:visible;"/>
		</clipPath>
		<path style="clip-path:url(#SVGID_00000110436892766482406020000017890688738489038485_);fill:#D3EDFC;" d="M72.276,448.357
			h345.499c21.836-50.037,34.432-107.266,28.151-162.731c-5.672-50.088-23.846-99.222-55.434-134.5
			c-46.98-52.467-119.387-68.327-183.392-51.625c-47.96,12.515-93.445,43.051-120.788,89.841
			c-21.68,37.098-30.967,82.339-31.901,126.953C53.478,360.909,63.659,404.832,72.276,448.357z"/>
		<g style="clip-path:url(#SVGID_00000110436892766482406020000017890688738489038485_);">
			<path style="fill:#A4D5F2;" d="M336.368,133.715h-6.79c-2.097,0-3.797,1.7-3.797,3.797v40.864c0,2.097,1.7,3.797,3.797,3.797
				h6.79c2.097,0,3.797-1.7,3.797-3.797v-40.864C340.166,135.415,338.465,133.715,336.368,133.715z"/>
			<path style="fill:#A4D5F2;" d="M349.047,134.014l-6.382,2.321c-1.971,0.717-2.987,2.896-2.271,4.866l13.967,38.403
				c0.717,1.971,2.895,2.987,4.866,2.271l6.382-2.321c1.971-0.717,2.987-2.895,2.271-4.866l-13.967-38.403
				C353.197,134.314,351.018,133.297,349.047,134.014z"/>
			<path style="fill:#A4D5F2;" d="M383.361,171.586v6.79c0,2.097,1.7,3.797,3.797,3.797h40.864c2.097,0,3.797-1.7,3.797-3.797v-6.79
				c0-2.097-1.7-3.797-3.797-3.797h-40.864C385.06,167.788,383.361,169.488,383.361,171.586z"/>
			<path style="fill:#A4D5F2;" d="M367.865,157.201v6.79c0,2.097,1.7,3.797,3.797,3.797h40.864c2.097,0,3.797-1.7,3.797-3.797v-6.79
				c0-2.097-1.7-3.797-3.797-3.797h-40.864C369.565,153.404,367.865,155.104,367.865,157.201z"/>
			<path style="fill:#A4D5F2;" d="M439.68,182.173L439.68,182.173c0,7.106-5.761,12.867-12.867,12.867h-10.126v10.531h-8.47V195.04
				h-59.922v10.531h-8.47V195.04h-8.868c-7.106,0-12.867-5.761-12.867-12.867v0H439.68z"/>
		</g>
		<g style="clip-path:url(#SVGID_00000110436892766482406020000017890688738489038485_);">
			<path style="fill:#A4D5F2;" d="M105.415,405.038c-0.502-3.438,0.852-6.983,3.128-9.607c2.277-2.624,5.396-4.405,8.656-5.604
				c2.843-1.046,6.071-1.852,7.809-4.334c1.595-2.277,1.44-5.37,0.62-8.026c-0.821-2.656-2.225-5.107-2.995-7.778
				c-2.046-7.096,1.082-15.36,7.314-19.323c6.231-3.963,15.042-3.293,20.601,1.568c2.381,2.081,4.202,4.917,4.617,8.053
				c0.681,5.155-2.787,10.38-7.6,12.35c-1.735,0.71-3.601,1.05-5.347,1.733c-1.745,0.683-3.444,1.809-4.184,3.531
				c-1.092,2.54,0.213,5.458,1.8,7.723c1.586,2.265,3.547,4.466,3.925,7.205c0.461,3.342-1.694,6.639-4.576,8.391
				s-6.358,2.223-9.73,2.344c-2.175,0.078-4.387,0.031-6.479,0.628c-2.092,0.597-4.102,1.979-4.804,4.038
				c-1.069,3.139,1.159,6.411,1.343,9.722c0.134,2.4-0.892,4.838-2.701,6.42c-1.809,1.582-4.362,2.275-6.722,1.823l-2.498-1.672
				c-1.163,1.25-3.492,0.285-4.043-1.331c-0.551-1.616,0.138-3.388,1.013-4.854c0.875-1.466,1.968-2.863,2.322-4.534
				C107.481,410.676,105.833,407.899,105.415,405.038z"/>
			<path style="fill:#A4D5F2;" d="M80.392,409.799c-2.364-1.94-5.467-2.646-8.347-3.676c-2.88-1.03-5.857-2.676-6.956-5.529
				c-1.001-2.598-0.175-5.553,1.107-8.025c1.282-2.472,3.013-4.72,3.982-7.33c0.968-2.61,1.012-5.83-0.859-7.892
				c-1.799-1.982-4.727-2.31-7.362-2.78c-3.407-0.608-6.823-1.709-9.492-3.911c-2.669-2.202-4.476-5.668-3.999-9.096
				c0.383-2.748,2.188-5.173,4.502-6.705c2.313-1.532,5.091-2.242,7.856-2.471c7.133-0.59,14.602,2.127,19.23,7.586
				c4.629,5.459,6.036,13.635,2.953,20.094c-1.078,2.258-2.642,4.27-3.578,6.589c-0.936,2.32-1.128,5.187,0.433,7.142
				c1.164,1.458,3.034,2.105,4.691,2.962c5.021,2.598,8.662,7.939,8.696,13.593c0.019,3.082-2.618,11.847-6.999,11.118
				c-2.493-0.415-2.251-3.41-2.467-5.233C83.491,413.772,82.326,411.386,80.392,409.799z"/>
			<path style="fill:#A4D5F2;" d="M94.061,402.821c-2.413-2.959-6.158-5.252-6.74-9.025c-0.436-2.822,1.122-5.579,3.005-7.725
				c1.883-2.146,4.16-3.975,5.67-6.398c2.512-4.032,2.46-9.517-0.129-13.501c-1.575-2.424-3.923-4.221-6.213-5.986
				c-2.29-1.764-4.618-3.599-6.126-6.064c-1.509-2.465-2.051-5.729-0.616-8.239c1.135-1.985,3.313-3.186,5.536-3.72
				c3.796-0.911,7.89-0.111,11.305,1.781c3.415,1.891,6.186,4.81,8.309,8.086c2.502,3.86,4.173,8.315,4.418,12.909
				c0.245,4.594-0.997,9.319-3.796,12.97c-1.601,2.088-3.654,3.78-5.432,5.719c-1.779,1.939-3.333,4.259-3.575,6.879
				c-0.324,3.495,1.7,6.715,2.756,10.062c0.945,2.996,1.033,6.226,0.388,9.292c-0.359,1.706-1.911,7.689-3.95,8.091
				c-2.667,0.526-1.654-5.152-1.676-6.311C97.134,408.467,96.075,405.292,94.061,402.821z"/>
			
				<path style="fill:none;stroke:#FFFFFF;stroke-width:0.8026;stroke-linecap:round;stroke-linejoin:round;stroke-miterlimit:10;" d="
				M88.143,417.262c2.272-4.746,0.467-11.055-3.972-13.88c-2.029-1.292-4.416-1.872-6.642-2.786
				c-2.225-0.914-4.442-2.324-5.348-4.552c-1.183-2.907,0.197-6.15,1.363-9.064c1.02-2.548,1.893-5.184,2.176-7.914
				c0.283-2.73-0.057-5.579-1.348-8.001c-1.58-2.962-4.463-5.061-7.566-6.343c-3.103-1.282-6.451-1.834-9.764-2.376"/>
			
				<path style="fill:none;stroke:#FFFFFF;stroke-width:0.8026;stroke-linecap:round;stroke-linejoin:round;stroke-miterlimit:10;" d="
				M98.48,416.727c2.544-4.795,2.263-10.963-0.706-15.506c-1.395-2.135-3.386-4.063-3.725-6.591
				c-0.271-2.025,0.593-4.019,1.536-5.832c1.773-3.41,3.896-6.636,5.533-10.114c1.636-3.478,2.786-7.303,2.434-11.131
				c-0.373-4.06-2.419-7.822-5.077-10.914c-2.658-3.092-5.918-5.598-9.153-8.08"/>
			
				<path style="fill:none;stroke:#FFFFFF;stroke-width:0.8026;stroke-linecap:round;stroke-linejoin:round;stroke-miterlimit:10;" d="
				M113.173,419.498c-1.334-3.556-2.157-7.381-1.729-11.155c0.429-3.774,2.228-7.496,5.325-9.695c2.641-1.874,5.935-2.5,9.011-3.511
				c3.077-1.011,6.252-2.685,7.527-5.663c0.943-2.203,0.667-4.736,0.074-7.057c-0.593-2.322-1.486-4.582-1.747-6.964
				c-0.457-4.184,1.156-8.473,3.991-11.584c2.834-3.112,6.803-5.082,10.942-5.849"/>
			<polygon style="fill:#A4D5F2;" points="73.607,410.152 126.461,410.152 113.385,448.357 86.683,448.357 			"/>
		</g>
		<g style="clip-path:url(#SVGID_00000110436892766482406020000017890688738489038485_);">
			<rect x="50.72" y="149.168" style="fill:#D3EDFC;" width="130.13" height="137.175"/>
			<g>
				<g>
					<polygon style="fill:#EDF7FC;" points="121.218,286.343 153.579,286.343 180.85,259.082 180.85,226.721 					"/>
					<polygon style="fill:#EDF7FC;" points="98.651,286.343 112.79,286.343 180.85,218.273 180.85,204.144 					"/>
				</g>
				<g>
					<polygon style="fill:#EDF7FC;" points="50.72,211.141 50.72,243.502 145.044,149.168 112.683,149.168 					"/>
					<polygon style="fill:#EDF7FC;" points="50.72,188.564 50.72,202.693 104.254,149.168 90.126,149.168 					"/>
				</g>
			</g>
			
				<rect x="50.722" y="149.165" transform="matrix(-1 -1.224647e-16 1.224647e-16 -1 231.57 435.5111)" style="fill:none;stroke:#A4D5F2;stroke-width:5.4349;stroke-miterlimit:10;" width="130.127" height="137.182"/>
			
				<line style="fill:none;stroke:#A4D5F2;stroke-width:5.4349;stroke-miterlimit:10;" x1="180.848" y1="217.756" x2="50.722" y2="217.756"/>
			
				<line style="fill:none;stroke:#A4D5F2;stroke-width:5.4349;stroke-miterlimit:10;" x1="115.785" y1="286.346" x2="115.785" y2="149.165"/>
		</g>
		<g style="clip-path:url(#SVGID_00000110436892766482406020000017890688738489038485_);">
			<g>
				<rect x="136.315" y="432.422" style="fill:#A4D5F2;" width="64.748" height="4.949"/>
				<g>
					<g>
						<path style="fill:#A4D5F2;" d="M184.455,448.357L184.455,448.357c1.916,0,3.47-1.553,3.47-3.47v-19.981
							c0-1.916-1.553-3.47-3.47-3.47l0,0c-1.916,0-3.47,1.553-3.47,3.47v19.981C180.985,446.803,182.539,448.357,184.455,448.357z"
							/>
						<path style="fill:#A4D5F2;" d="M191.395,448.357L191.395,448.357c1.916,0,3.47-1.553,3.47-3.47v-19.981
							c0-1.916-1.553-3.47-3.47-3.47h0c-1.916,0-3.47,1.553-3.47,3.47v19.981C187.925,446.803,189.479,448.357,191.395,448.357z"/>
						<rect x="194.865" y="430.643" style="fill:#A4D5F2;" width="3.4" height="8.507"/>
					</g>
					<g>
						<path style="fill:#A4D5F2;" d="M152.923,448.357L152.923,448.357c-1.916,0-3.47-1.553-3.47-3.47v-19.981
							c0-1.916,1.553-3.47,3.47-3.47l0,0c1.916,0,3.47,1.553,3.47,3.47v19.981C156.393,446.803,154.84,448.357,152.923,448.357z"/>
						<path style="fill:#A4D5F2;" d="M145.984,448.357L145.984,448.357c-1.916,0-3.47-1.553-3.47-3.47v-19.981
							c0-1.916,1.553-3.47,3.47-3.47l0,0c1.916,0,3.47,1.553,3.47,3.47v19.981C149.454,446.803,147.9,448.357,145.984,448.357z"/>
						<rect x="139.114" y="430.643" style="fill:#A4D5F2;" width="3.4" height="8.507"/>
					</g>
				</g>
			</g>
		</g>
		<g style="clip-path:url(#SVGID_00000110436892766482406020000017890688738489038485_);">
			<path style="fill:#A4D5F2;" d="M360.219,356.208h41.918c3.469,0,6.281,2.812,6.281,6.281v79.564c0,3.469-2.812,6.281-6.281,6.281
				h-41.918c-3.469,0-6.281-2.812-6.281-6.281v-79.564C353.938,359.02,356.75,356.208,360.219,356.208z"/>
			<g>
				
					<ellipse transform="matrix(0.9861 -0.1659 0.1659 0.9861 -57.9912 68.5051)" style="fill:#D3EDFC;" cx="381.178" cy="381.474" rx="19.704" ry="19.704"/>
				<circle style="fill:#A4D5F2;" cx="381.178" cy="381.474" r="10.947"/>
			</g>
			<g>
				
					<ellipse transform="matrix(0.4097 -0.9122 0.9122 0.4097 -162.303 598.3594)" style="fill:#D3EDFC;" cx="381.178" cy="424.585" rx="19.704" ry="19.704"/>
				<circle style="fill:#A4D5F2;" cx="381.178" cy="424.585" r="10.947"/>
			</g>
		</g>
		<path style="clip-path:url(#SVGID_00000110436892766482406020000017890688738489038485_);fill:#A4D5F2;" d="M318.249,416.915
			V404.09c0-2.116,1.603-3.839,3.657-4.069v-4.196c0-1.194,0.967-2.161,2.161-2.161h0.122v-0.913c0-0.52,0.422-0.942,0.942-0.942
			h1.642c0.52,0,0.942,0.421,0.942,0.942v0.913h0.121c1.194,0,2.161,0.967,2.161,2.161v4.196c2.054,0.23,3.657,1.953,3.657,4.069
			v12.825c1.715,0.97,2.875,2.808,2.875,4.919v20.848c0,3.121-2.53,5.651-5.651,5.651h-9.853c-3.121,0-5.651-2.53-5.651-5.651
			v-20.848C315.374,419.723,316.534,417.885,318.249,416.915z"/>
		<g style="clip-path:url(#SVGID_00000110436892766482406020000017890688738489038485_);">
			
				<rect x="311.248" y="221.892" transform="matrix(-1 -1.224647e-16 1.224647e-16 -1 777.9642 544.8457)" style="fill:#A4D5F2;" width="155.468" height="101.062"/>
			<rect x="317.104" y="226.968" style="fill:#D3EDFC;" width="143.755" height="90.918"/>
			<g>
				<polygon style="fill:#EDF7FC;" points="395.944,317.886 440.131,317.886 460.859,297.157 460.859,252.961 				"/>
				<polygon style="fill:#EDF7FC;" points="367.309,317.886 384.535,317.886 460.859,241.561 460.859,226.968 458.227,226.968 				
					"/>
			</g>
			<g>
				<polygon style="fill:#EDF7FC;" points="317.104,265.309 317.104,309.505 399.641,226.968 355.445,226.968 				"/>
				<polygon style="fill:#EDF7FC;" points="317.104,236.674 317.104,253.919 344.045,226.968 326.81,226.968 				"/>
			</g>
		</g>
	</g>
	<g>
		<g>
			<g>
				<g>
					
						<rect x="167.227" y="39.139" transform="matrix(0.4796 0.8775 -0.8775 0.4796 161.5206 -106.526)" style="fill:#B3B3B3;" width="6.693" height="87.556"/>
				</g>
				<g>
					<g>
						<g>
							<path style="fill:#1B141C;" d="M160.596,109.113L160.596,109.113c-2.274,1.243-5.125,0.407-6.368-1.867L141.27,83.538
								c-1.243-2.274-0.407-5.125,1.867-6.368l0,0c2.274-1.243,5.125-0.407,6.368,1.867l12.959,23.708
								C163.705,105.02,162.87,107.87,160.596,109.113z"/>
						</g>
						<g>
							<path style="fill:#1B141C;" d="M152.362,113.614L152.362,113.614c-2.274,1.243-5.125,0.407-6.368-1.867l-12.959-23.708
								c-1.243-2.274-0.407-5.125,1.867-6.368l0,0c2.274-1.243,5.125-0.407,6.368,1.867l12.959,23.708
								C155.471,109.521,154.635,112.371,152.362,113.614z"/>
						</g>
						<g>
							
								<rect x="135.198" y="95.244" transform="matrix(0.8775 -0.4796 0.4796 0.8775 -31.5927 78.3178)" style="fill:#828282;" width="4.598" height="11.503"/>
						</g>
					</g>
					<g>
						<g>
							<path style="fill:#1B141C;" d="M198.011,88.663L198.011,88.663c2.274-1.243,3.11-4.094,1.867-6.368l-12.959-23.708
								c-1.243-2.274-4.094-3.11-6.368-1.867l0,0c-2.274,1.243-3.11,4.094-1.867,6.368l12.959,23.708
								C192.886,89.07,195.737,89.906,198.011,88.663z"/>
						</g>
						<g>
							<path style="fill:#1B141C;" d="M206.245,84.162L206.245,84.162c2.274-1.243,3.11-4.094,1.867-6.368l-12.959-23.708
								c-1.243-2.274-4.094-3.11-6.368-1.867l0,0c-2.274,1.243-3.11,4.094-1.867,6.368l12.959,23.708
								C201.12,84.569,203.971,85.405,206.245,84.162z"/>
						</g>
						<g>
							
								<rect x="201.351" y="59.086" transform="matrix(-0.8775 0.4796 -0.4796 -0.8775 413.4448 24.0558)" style="fill:#828282;" width="4.598" height="11.503"/>
						</g>
					</g>
				</g>
			</g>
			<g>
				<path style="fill:#B7502D;" d="M243.68,195.7c-3.15,4.82-9.07,6.74-14.29,5.06c-4.82-1.56-9.46-3.49-14.07-5.48
					c-4.6-2.03-9.13-4.17-13.6-6.46c-2.25-1.13-4.49-2.26-6.7-3.45c-2.23-1.15-4.44-2.35-6.64-3.57c-3.75-2.08-7.48-4.22-11.13-6.51
					c0.1-5.43-3.33-11.12-8.52-12.48l-3.08-66.22c-1.69-1.26-2.99-2.98-3.75-4.96l-1.11-2.94L158,82.6
					c-0.5-1.08-0.02-2.36,1.06-2.85l0.71-0.33c0.92-0.42,1.97-0.14,2.57,0.61l0.07-0.03l-0.19-0.41c-0.5-1.09-0.02-2.36,1.06-2.86
					l0.71-0.33c1.08-0.49,2.36-0.02,2.86,1.07l-0.28-0.6c-0.49-1.08-0.02-2.36,1.07-2.86l0.71-0.32c1.08-0.5,2.36-0.02,2.85,1.06
					l-0.15-0.33c-0.49-1.09-0.02-2.37,1.06-2.86l0.71-0.33c1.09-0.49,2.37-0.02,2.86,1.06l1.47,3.2c2.82,0.98,6.46,2.75,7.57,5.68
					c1.57,4.1-2.03,10.84-3.35,13.09l9.3,60.19c5.13-0.7,10.45-0.04,15.24,1.94c5.25,2.17,9.84,5.9,13.05,10.59l0.01,0.01
					c7.35,0.52,14.39,4.42,19.05,10.15c0.68,0.42,1.37,0.83,2.04,1.27C245.83,182.19,247.45,189.93,243.68,195.7z"/>
			</g>
			<g>
				<path style="fill:#B7502D;" d="M287.682,235.59v-44.449c0-6.125-4.114-11.487-10.031-13.073l-22.328-5.983l-20.652,5.875
					c-5.818,1.655-9.831,6.969-9.831,13.017v44.613H287.682z"/>
			</g>
			<g>
				<path style="fill:#801400;" d="M224.841,225.091v-4.925c0,0,8.067-2.159,13.183-13.325l-1.937,13.751l-9.804,6.743
					L224.841,225.091z"/>
			</g>
			<g>
				<path style="fill:#801400;" d="M287.682,225.091v-4.925c0,0-7.495-2.117-12.837-13.325l1.592,13.751l9.804,6.743
					L287.682,225.091z"/>
			</g>
			<g>
				<g>
					
						<rect x="340.08" y="39.139" transform="matrix(-0.4796 0.8775 -0.8775 -0.4796 580.898 -178.6636)" style="fill:#B3B3B3;" width="6.693" height="87.556"/>
				</g>
				<g>
					<g>
						<g>
							<path style="fill:#1B141C;" d="M353.404,109.113L353.404,109.113c2.274,1.243,5.125,0.407,6.368-1.867l12.959-23.708
								c1.243-2.274,0.407-5.125-1.867-6.368l0,0c-2.274-1.243-5.125-0.407-6.368,1.867l-12.959,23.708
								C350.295,105.02,351.13,107.87,353.404,109.113z"/>
						</g>
						<g>
							<path style="fill:#1B141C;" d="M361.638,113.614L361.638,113.614c2.274,1.243,5.125,0.407,6.367-1.867l12.959-23.708
								c1.243-2.274,0.407-5.125-1.867-6.368l0,0c-2.274-1.243-5.125-0.407-6.367,1.867l-12.959,23.708
								C358.529,109.521,359.365,112.371,361.638,113.614z"/>
						</g>
						<g>
							
								<rect x="374.204" y="95.244" transform="matrix(-0.8775 -0.4796 0.4796 -0.8775 658.4402 370.191)" style="fill:#828282;" width="4.598" height="11.503"/>
						</g>
					</g>
					<g>
						<g>
							<path style="fill:#1B141C;" d="M315.989,88.663L315.989,88.663c-2.274-1.243-3.11-4.094-1.867-6.368l12.959-23.708
								c1.243-2.274,4.094-3.11,6.368-1.867l0,0c2.274,1.243,3.11,4.094,1.867,6.368l-12.959,23.708
								C321.114,89.07,318.263,89.906,315.989,88.663z"/>
						</g>
						<g>
							<path style="fill:#1B141C;" d="M307.755,84.162L307.755,84.162c-2.274-1.243-3.11-4.094-1.867-6.368l12.959-23.708
								c1.243-2.274,4.094-3.11,6.367-1.867l0,0c2.274,1.243,3.11,4.094,1.867,6.368l-12.959,23.708
								C312.88,84.569,310.029,85.405,307.755,84.162z"/>
						</g>
						<g>
							
								<rect x="308.051" y="59.086" transform="matrix(0.8775 0.4796 -0.4796 0.8775 69.1229 -140.9064)" style="fill:#828282;" width="4.598" height="11.503"/>
						</g>
					</g>
				</g>
			</g>
			<g>
				<path style="fill:#1B141C;" d="M281.978,129.805c0.846-0.615,1.201-1.75,1.089-2.789c-0.112-1.039-0.627-1.995-1.238-2.844
					c-1.703-2.367-4.116-3.966-6.939-4.697c0.702-0.554,1.414-1.117,1.939-1.841c0.525-0.724,0.849-1.641,0.673-2.518
					c-0.237-1.183-1.301-2.016-2.376-2.564c-3.388-1.727-7.57-1.362-10.855,0.554c0.283-0.847,0.538-1.721,0.528-2.615
					c-0.01-0.893-0.319-1.82-0.999-2.4c-1.008-0.859-2.512-0.747-3.796-0.426c-3.552,0.888-6.865,2.569-9.036,5.518
					c0.128-0.743,0.257-1.504,0.124-2.246c-0.133-0.742-0.581-1.474-1.29-1.732c-0.71-0.259-1.499,0.002-2.182,0.325
					c-3.954,1.869-6.864,5.694-7.084,10.038c-0.049-0.879-0.746-1.695-1.606-1.962c-0.986-0.306-2.089,0.009-2.917,0.625
					c-0.828,0.616-1.419,1.499-1.903,2.411c-1.658,3.122-1.989,7.086-1.214,10.535c-0.26-1.082-1.592-1.671-2.656-1.348
					c-1.064,0.323-1.808,1.345-2.063,2.428c-0.255,1.083-0.093,2.22,0.161,3.303c1.177,5.006,4.396,9.482,8.713,12.276l42.35-1.052
					c3.281-5.172,3.339-12.325-0.221-17.309C279.782,130.329,281.132,130.42,281.978,129.805z"/>
			</g>
			<g>
				<g>
					<path style="fill:#B7502D;" d="M301.493,363.829c-0.2-2.09-0.37-4.18-0.5-6.28c-0.41-6.11-0.62-12.24-1.05-18.35
						c-0.226-3.26-0.516-6.514-0.929-9.748c-1.874,0.333-3.768,0.62-5.706,0.872c-1.521,0.198-3.043,0.375-4.565,0.541
						c-6.872,1.39-13.862,2.307-20.852,2.862c2.041,11.477,5.678,22.695,8.152,34.104l16.05,72.71c0.91,4.15,4.81,7.05,9.14,6.62
						c4.67-0.46,8.08-4.62,7.61-9.29L301.493,363.829z"/>
				</g>
			</g>
			<g>
				<g>
					<path style="fill:#B7502D;" d="M214.651,330.943c-0.303,2.594-0.541,5.196-0.728,7.806c-0.46,6.38-0.66,12.8-1.09,19.18
						c-0.14,1.97-0.29,3.94-0.48,5.9l-7.35,74.04c-0.43,4.23,2.37,8.2,6.62,9.13c4.58,1.02,9.11-1.88,10.12-6.46l16.05-72.71
						c2.432-11.174,5.973-22.164,8.035-33.394C235.357,334.28,224.764,333.311,214.651,330.943z"/>
				</g>
			</g>
			<g>
				<path style="fill:#801400;" d="M226.813,349.029c-1.29,7.11-5.88,12.24-10.26,11.45c-1.48-0.27-2.75-1.19-3.72-2.55
					c0.43-6.38,0.63-12.8,1.09-19.18c2.02-2.89,4.69-4.51,7.29-4.03C225.593,335.509,228.093,341.919,226.813,349.029z"/>
			</g>
			<g>
				<path style="fill:#801400;" d="M300.993,357.549c-1.01,1.58-2.37,2.63-3.98,2.93c-4.38,0.79-8.97-4.34-10.26-11.45
					c-1.28-7.11,1.22-13.52,5.6-14.31c2.73-0.5,5.54,1.31,7.59,4.48C300.373,345.309,300.583,351.439,300.993,357.549z"/>
			</g>
			<g>
				<rect x="246.464" y="160.347" style="fill:#B7502D;" width="19.596" height="26.42"/>
			</g>
			<g>
				<path style="fill:#801400;" d="M266.06,160.347v8.617c-2.102,0.767-4.401,1.15-6.565,1.298c-2.967,0.21-5.934-0.012-8.877-0.359
					c-1.397-0.161-2.819-0.544-4.154-1.1v-8.456H266.06z"/>
			</g>
			<g>
				<g>
					<path style="fill:#801400;" d="M336.012,174.562c0.241-0.154,0.485-0.301,0.725-0.456l1.955-1.264
						c2.636-1.731,4.434-4.658,4.592-8.049l0.143-3.075C338.642,164.275,335.449,169.28,336.012,174.562z"/>
				</g>
				<g>
					<path style="fill:#B7502D;" d="M326.741,153.165c-1.816,0.594-3.612,1.232-5.399,1.887l-1.147,7.426L326.741,153.165z"/>
				</g>
			</g>
			<g>
				<g>
					<path style="fill:#B7502D;" d="M191.908,162.478l-1.148-7.426c-1.787-0.655-3.583-1.293-5.399-1.887L191.908,162.478z"/>
				</g>
				<g>
					<path style="fill:#801400;" d="M168.727,162.814l0.092,1.978c0.167,3.149,1.792,6.237,4.642,8.081l1.904,1.233
						c0.624,0.404,1.255,0.792,1.884,1.186C177.353,169.861,173.92,164.166,168.727,162.814z"/>
				</g>
			</g>
			<g>
				<g>
					<path style="fill:#B7502D;" d="M281.534,141.325c-0.868-1.149-2.308-2.009-3.891-2.126c-1.583-0.117-3.259,0.593-3.952,1.828
						l-0.596,7.888c0.571,1.328,2.217,2.198,3.857,2.203c1.64,0.005,3.211-0.772,4.212-1.894c1.001-1.122,1.469-2.553,1.522-3.969
						C282.738,143.883,282.403,142.474,281.534,141.325z"/>
				</g>
				<g>
					<g>
						<path style="fill:#801400;" d="M277.438,149.068c-0.15,0-0.297-0.081-0.373-0.223c-1.325-2.464-1.133-5.448,0.503-7.786
							c0.134-0.193,0.398-0.239,0.59-0.104c0.191,0.134,0.238,0.398,0.103,0.59c-1.45,2.075-1.623,4.718-0.45,6.899
							c0.111,0.206,0.034,0.463-0.172,0.574C277.574,149.051,277.506,149.068,277.438,149.068z"/>
					</g>
					<g>
						<path style="fill:#801400;" d="M279.768,147.654c-0.169,0-0.329-0.102-0.395-0.268c-0.413-1.052-1.35-1.963-2.569-2.5
							c-0.214-0.094-0.311-0.344-0.217-0.558c0.094-0.215,0.346-0.31,0.559-0.217c1.422,0.625,2.521,1.706,3.017,2.964
							c0.085,0.218-0.021,0.464-0.239,0.549C279.872,147.644,279.819,147.654,279.768,147.654z"/>
					</g>
				</g>
			</g>
			<g>
				<g>
					<path style="fill:#B7502D;" d="M231.561,141.325c0.868-1.149,2.308-2.009,3.891-2.126c1.583-0.117,3.259,0.593,3.952,1.828
						l0.596,7.888c-0.571,1.328-2.217,2.198-3.857,2.203c-1.64,0.005-3.21-0.772-4.212-1.894c-1.001-1.122-1.469-2.553-1.523-3.969
						C230.358,143.883,230.693,142.474,231.561,141.325z"/>
				</g>
				<g>
					<g>
						<path style="fill:#801400;" d="M235.658,149.068c-0.067,0-0.136-0.017-0.2-0.051c-0.206-0.111-0.283-0.368-0.172-0.574
							c1.173-2.181,1-4.825-0.451-6.899c-0.134-0.191-0.087-0.456,0.104-0.59c0.191-0.134,0.455-0.088,0.59,0.104
							c1.636,2.337,1.828,5.321,0.503,7.786C235.955,148.987,235.809,149.068,235.658,149.068z"/>
					</g>
					<g>
						<path style="fill:#801400;" d="M233.328,147.654c-0.052,0-0.104-0.01-0.155-0.03c-0.217-0.085-0.325-0.331-0.239-0.549
							c0.495-1.258,1.594-2.338,3.017-2.964c0.212-0.095,0.463,0.003,0.558,0.217c0.094,0.214-0.003,0.464-0.217,0.558
							c-1.219,0.537-2.156,1.448-2.57,2.5C233.656,147.552,233.497,147.654,233.328,147.654z"/>
					</g>
				</g>
			</g>
			<g>
				<path style="fill:#B7502D;" d="M276.203,140.879c0,1.35-0.11,2.66-0.3,3.95v5.78c0,0.84-0.06,1.68-0.2,2.51
					c-0.09,0.64-0.22,1.28-0.39,1.9c-0.22,0.78-0.49,1.54-0.82,2.28c-0.12,0.27-0.24,0.53-0.38,0.79c-1.23,2.41-3.07,4.58-5.32,6.09
					c-0.12,0.09-0.25,0.18-0.38,0.26c-2.64,1.67-5.96,2.38-9.03,2.6c-2.85,0.21-5.71-0.01-8.54-0.35c-2.36-0.29-4.77-1.24-6.72-2.61
					c-0.03-0.02-0.07-0.05-0.1-0.08c-3.69-2.62-6.11-6.73-6.72-11.18c-0.1-0.73-0.15-1.47-0.15-2.21v-5.78
					c-0.18-1.29-0.3-2.6-0.3-3.95c0-12.91,8.81-23.37,19.68-23.37C267.393,117.509,276.203,127.969,276.203,140.879z"/>
			</g>
			<g>
				<g>
					<path style="fill:#B7502D;" d="M338.417,81.912l-4.629-2.121l3.435-7.496c0.496-1.082,1.775-1.558,2.857-1.062l0.71,0.325
						c1.082,0.496,1.557,1.775,1.062,2.857L338.417,81.912z"/>
				</g>
				<g>
					<path style="fill:#B7502D;" d="M342.894,84.365l-4.629-2.121l3.435-7.496c0.496-1.082,1.775-1.558,2.857-1.062l0.71,0.325
						c1.082,0.496,1.557,1.775,1.062,2.857L342.894,84.365z"/>
				</g>
				<g>
					<path style="fill:#B7502D;" d="M347.249,87.083l-4.629-2.121l3.435-7.496c0.496-1.082,1.775-1.558,2.858-1.062l0.71,0.325
						c1.082,0.496,1.558,1.775,1.062,2.857L347.249,87.083z"/>
				</g>
				<g>
					<path style="fill:#B7502D;" d="M351.468,90.1l-4.629-2.121l3.435-7.496c0.496-1.082,1.775-1.558,2.857-1.062l0.71,0.325
						c1.082,0.496,1.558,1.775,1.062,2.857L351.468,90.1z"/>
				</g>
			</g>
			<g>
				<path style="fill:#B7502D;" d="M354.68,81.92L351,91.63c-0.87,2.3-2.49,4.23-4.57,5.52l-3,64.57
					c-4.79,2.55-7.98,7.56-7.42,12.84c-4.02,2.57-8.14,4.94-12.29,7.24c-2.2,1.22-4.41,2.42-6.63,3.57
					c-2.22,1.19-4.46,2.32-6.7,3.45c-4.47,2.29-9.01,4.43-13.61,6.46c-4.61,1.99-9.25,3.92-14.07,5.48
					c-6.57,2.11-13.6-1.5-15.72-8.06c-1.76-5.48,0.46-11.28,5.05-14.29c0.11-0.07,0.23-0.14,0.34-0.21
					c4.63-6.31,12.08-10.67,19.88-11.21c3.21-4.7,7.8-8.43,13.06-10.6c5.05-2.09,10.7-2.71,16.1-1.81l9.38-60.71
					c0.03-0.23,0.08-0.46,0.14-0.68c-1.56-2.87-4.12-8.45-2.76-12.02c1.13-2.97,4.85-4.75,7.68-5.71l0.89-1.76l2.03,0.93
					c0.33-0.07,0.53-0.11,0.53-0.11l-0.01,0.35L354.68,81.92z"/>
			</g>
			<g>
				<path style="fill:#7255C3;" d="M223.902,263.045h64.533l3.593,26.325c0,0,7.299,29.368,9.827,50.125l-34.896,7.108
					c0,0-4.433-21.696-5.586-35.009l-7.957-0.609c0,0-3.444,22.223-6.705,35.907l-35.884-5.751c0,0,4.816-31.882,10.299-51.581
					L223.902,263.045z"/>
			</g>
			<g>
				<g>
					<g>
						<path style="fill:#E6E6E6;" d="M232.453,403.349c-0.11,0.74-0.75,1.28-1.48,1.28c-0.08,0-0.15-0.01-0.22-0.02l-0.71-0.1
							l-0.5,2.34l-1.01,4.74l-0.42,1.96l-1.01,4.75l-3.83,17.92l-17.97-3.42l1.58-17.24l0.44-4.82l0.19-1.99l0.44-4.82l0.24-2.64
							l-0.78-0.12c-0.82-0.12-1.39-0.88-1.26-1.7c0.12-0.82,0.88-1.38,1.7-1.26l23.33,3.43
							C232.003,401.769,232.573,402.529,232.453,403.349z"/>
					</g>
					<g>
						<polygon style="fill:#CCCCCC;" points="229.543,406.849 228.533,411.589 207.513,408.749 207.953,403.929 						"/>
					</g>
					<g>
						<polygon style="fill:#CCCCCC;" points="228.113,413.549 227.103,418.299 206.883,415.559 207.323,410.739 						"/>
					</g>
				</g>
				<g>
					<g>
						<path style="fill:#1B141C;" d="M223.995,448.297v0.035h-29.146v-2.632c0-0.328,0.012-0.655,0.035-0.983
							c0.082-1.474,0.374-2.912,0.866-4.281c0.596-1.673,1.485-3.24,2.62-4.643l7.322-9.029c0-2.327,1.883-4.211,4.211-4.211h6.327
							c1.766,0,3.333,1.088,3.942,2.737l3.146,7.251c0.187,0.445,0.339,0.901,0.433,1.357c0.011,0.058,0.023,0.105,0.035,0.164
							c0.023,0.082,0.035,0.164,0.047,0.246c0.094,0.479,0.129,0.983,0.117,1.485c-0.012,0.515-0.023,1.158-0.023,1.895
							c-0.012,0.292-0.012,0.596-0.012,0.924c0,0.713,0,1.497,0.012,2.351c0,1.135,0.012,2.398,0.035,3.754
							C223.983,445.853,223.995,447.046,223.995,448.297z"/>
					</g>
					<g>
						<path style="fill:#A8A8A5;" d="M203.998,445.737v2.62l20-0.023c0-1.251-0.008-2.444-0.024-3.579h-19.952
							C204.006,445.082,203.998,445.409,203.998,445.737z"/>
					</g>
					<g>
						<path style="fill:#D5D5D1;" d="M208.691,430.762h6.799c1.018,0,1.843-0.825,1.843-1.842l0,0c0-1.018-0.825-1.843-1.843-1.843
							h-6.799c-1.018,0-1.843,0.825-1.843,1.843l0,0C206.849,429.937,207.674,430.762,208.691,430.762z"/>
					</g>
					<g>
						<path style="fill:#D5D5D1;" d="M205.59,433.678h8.719c0.487,0,0.883-0.395,0.883-0.883l0,0c0-0.488-0.395-0.883-0.883-0.883
							h-8.719c-0.488,0-0.883,0.395-0.883,0.883l0,0C204.707,433.283,205.103,433.678,205.59,433.678z"/>
					</g>
					<g>
						<path style="fill:#D5D5D1;" d="M203.959,436.703h8.719c0.488,0,0.883-0.395,0.883-0.883l0,0c0-0.487-0.395-0.883-0.883-0.883
							h-8.719c-0.488,0-0.883,0.395-0.883,0.883l0,0C203.076,436.308,203.471,436.703,203.959,436.703z"/>
					</g>
					<g>
						<path style="fill:#D5D5D1;" d="M194.851,444.777v3.579l17.371-0.021c0.98-0.001,1.777-0.799,1.77-1.779
							c0-0.012,0-0.024,0-0.036c-0.006-0.977-0.796-1.766-1.772-1.766h-17.346C194.865,444.763,194.86,444.768,194.851,444.777z"/>
					</g>
					<g>
						<g>
							<path style="fill:#A8A8A5;" d="M223.948,435.794c-0.012,0.515-0.023,1.158-0.023,1.895c-0.012,0.292-0.012,0.596-0.012,0.924
								c-0.199,0.199-0.398,0.409-0.573,0.632c-1.38,1.684-2.117,3.86-2.117,5.918l-4.62-0.269c0.339-3.146,1.743-6.082,3.93-8.234
								c0.959-0.947,2.07-1.754,3.298-2.351C223.925,434.788,223.96,435.291,223.948,435.794z"/>
						</g>
					</g>
				</g>
			</g>
			<g>
				<g>
					<g>
						<path style="fill:#E6E6E6;" d="M281.114,403.349c0.11,0.74,0.75,1.28,1.48,1.28c0.08,0,0.15-0.01,0.22-0.02l0.71-0.1l0.5,2.34
							l1.01,4.74l0.42,1.96l1.01,4.75l3.83,17.92l17.97-3.42l-1.58-17.24l-0.44-4.82l-0.19-1.99l-0.44-4.82l-0.24-2.64l0.78-0.12
							c0.82-0.12,1.39-0.88,1.26-1.7c-0.12-0.82-0.88-1.38-1.7-1.26l-23.33,3.43C281.564,401.769,280.994,402.529,281.114,403.349z"
							/>
					</g>
					<g>
						<polygon style="fill:#CCCCCC;" points="284.024,406.849 285.034,411.589 306.054,408.749 305.614,403.929 						"/>
					</g>
					<g>
						<polygon style="fill:#CCCCCC;" points="285.454,413.549 286.464,418.299 306.684,415.559 306.244,410.739 						"/>
					</g>
				</g>
				<g>
					<g>
						<path style="fill:#1B141C;" d="M289.572,448.297v0.035h29.147v-2.632c0-0.328-0.012-0.655-0.035-0.983
							c-0.082-1.474-0.375-2.912-0.866-4.281c-0.596-1.673-1.485-3.24-2.62-4.643l-7.322-9.029c0-2.327-1.883-4.211-4.211-4.211
							h-6.328c-1.766,0-3.333,1.088-3.942,2.737l-3.146,7.251c-0.187,0.445-0.339,0.901-0.433,1.357
							c-0.012,0.058-0.023,0.105-0.035,0.164c-0.023,0.082-0.035,0.164-0.047,0.246c-0.094,0.479-0.129,0.983-0.117,1.485
							c0.012,0.515,0.023,1.158,0.023,1.895c0.012,0.292,0.012,0.596,0.012,0.924c0,0.713,0,1.497-0.012,2.351
							c0,1.135-0.012,2.398-0.035,3.754C289.584,445.853,289.572,447.046,289.572,448.297z"/>
					</g>
					<g>
						<path style="fill:#A8A8A5;" d="M309.569,445.737v2.62l-20-0.023c0-1.251,0.008-2.444,0.024-3.579h19.952
							C309.561,445.082,309.569,445.409,309.569,445.737z"/>
					</g>
					<g>
						<path style="fill:#D5D5D1;" d="M304.876,430.762h-6.799c-1.018,0-1.843-0.825-1.843-1.842l0,0
							c0-1.018,0.825-1.843,1.843-1.843h6.799c1.018,0,1.843,0.825,1.843,1.843l0,0
							C306.718,429.937,305.893,430.762,304.876,430.762z"/>
					</g>
					<g>
						<path style="fill:#D5D5D1;" d="M307.977,433.678h-8.719c-0.488,0-0.883-0.395-0.883-0.883l0,0
							c0-0.488,0.395-0.883,0.883-0.883h8.719c0.488,0,0.883,0.395,0.883,0.883l0,0
							C308.859,433.283,308.464,433.678,307.977,433.678z"/>
					</g>
					<g>
						<path style="fill:#D5D5D1;" d="M309.608,436.703h-8.719c-0.488,0-0.883-0.395-0.883-0.883l0,0
							c0-0.487,0.395-0.883,0.883-0.883h8.719c0.488,0,0.883,0.395,0.883,0.883l0,0
							C310.491,436.308,310.096,436.703,309.608,436.703z"/>
					</g>
					<g>
						<path style="fill:#D5D5D1;" d="M318.716,444.777v3.579l-17.371-0.021c-0.98-0.001-1.777-0.799-1.77-1.779
							c0-0.012,0-0.024,0-0.036c0.006-0.977,0.796-1.766,1.772-1.766h17.346C318.702,444.763,318.707,444.768,318.716,444.777z"/>
					</g>
					<g>
						<g>
							<path style="fill:#A8A8A5;" d="M289.619,435.794c0.012,0.515,0.023,1.158,0.023,1.895c0.012,0.292,0.012,0.596,0.012,0.924
								c0.199,0.199,0.398,0.409,0.573,0.632c1.38,1.684,2.117,3.86,2.117,5.918l4.62-0.269c-0.339-3.146-1.743-6.082-3.93-8.234
								c-0.959-0.947-2.07-1.754-3.298-2.351C289.642,434.788,289.607,435.291,289.619,435.794z"/>
						</g>
					</g>
				</g>
			</g>
			<g>
				<polygon style="fill:#594399;" points="208.866,341.653 247.253,348.259 250.321,340.751 209.708,335.155 				"/>
			</g>
			<g>
				<polygon style="fill:#594399;" points="304.311,341.653 265.924,348.259 262.856,340.751 303.469,335.155 				"/>
			</g>
			<g>
				<path style="fill:#801400;" d="M229.954,203.757c-0.021,0-0.042-0.001-0.063-0.005c-0.231-0.035-0.391-0.251-0.356-0.482
					c0.641-4.284-1.524-8.8-5.266-10.983c-0.202-0.118-0.271-0.377-0.152-0.579c0.117-0.202,0.377-0.272,0.579-0.152
					c4.034,2.353,6.368,7.222,5.677,11.84C230.341,203.606,230.16,203.757,229.954,203.757z"/>
			</g>
			<g>
				<path style="fill:#801400;" d="M282.007,203.757c-0.206,0-0.387-0.151-0.418-0.361c-0.691-4.618,1.642-9.487,5.676-11.84
					c0.202-0.118,0.462-0.05,0.58,0.152c0.117,0.202,0.05,0.461-0.152,0.579c-3.742,2.183-5.907,6.699-5.266,10.983
					c0.035,0.231-0.125,0.447-0.357,0.482C282.049,203.755,282.028,203.757,282.007,203.757z"/>
			</g>
			<g>
				<path style="fill:#801400;" d="M251.04,184.001c-0.105,0-0.21-0.039-0.292-0.117c-1.553-1.479-2.837-3.195-3.816-5.102
					c-0.107-0.208-0.025-0.463,0.184-0.57c0.207-0.107,0.463-0.025,0.57,0.184c0.936,1.821,2.163,3.461,3.646,4.875
					c0.17,0.161,0.176,0.429,0.015,0.599C251.263,183.957,251.151,184.001,251.04,184.001z"/>
			</g>
			<g>
				<path style="fill:#801400;" d="M260.878,184.001c-0.111,0-0.224-0.044-0.307-0.131c-0.161-0.169-0.155-0.438,0.015-0.599
					c1.483-1.415,2.711-3.055,3.645-4.875c0.108-0.21,0.364-0.291,0.57-0.184c0.208,0.107,0.29,0.362,0.184,0.57
					c-0.979,1.905-2.262,3.622-3.815,5.102C261.088,183.962,260.983,184.001,260.878,184.001z"/>
			</g>
			<g>
				
					<rect x="244.218" y="337.49" transform="matrix(0.1837 -0.983 0.983 0.1837 -132.2307 516.2478)" style="fill:#FFFFFF;" width="1" height="0.5"/>
				
					<rect x="249.276" y="310.557" transform="matrix(0.1837 -0.983 0.983 0.1837 -101.6271 499.2346)" style="fill:#FFFFFF;" width="1.001" height="0.5"/>
			</g>
			<g>
				<path style="fill:#FFFFFF;" d="M268.978,336.017l-0.321-1.974l0.494-0.08l0.321,1.974L268.978,336.017z M268.335,332.068
					l-0.321-1.974l0.494-0.08l0.321,1.974L268.335,332.068z M267.691,328.121l-0.322-1.975l0.494-0.08l0.322,1.975L267.691,328.121z
					 M267.048,324.173l-0.322-1.974l0.494-0.08l0.322,1.974L267.048,324.173z M266.404,320.226l-0.322-1.975l0.494-0.08l0.322,1.975
					L266.404,320.226z M265.761,316.277l-0.322-1.974l0.494-0.08l0.322,1.974L265.761,316.277z M265.117,312.329l-0.322-1.974
					l0.494-0.08l0.322,1.974L265.117,312.329z"/>
			</g>
			<g>
				<path style="fill:#FFFFFF;" d="M252.2,304.961c-0.241,0-0.453-0.174-0.493-0.419c-0.783-4.797-0.879-9.675-0.284-14.497
					c0.034-0.273,0.291-0.467,0.557-0.434c0.274,0.033,0.469,0.283,0.435,0.558c-0.583,4.728-0.489,9.51,0.279,14.212
					c0.045,0.273-0.141,0.53-0.413,0.574C252.254,304.959,252.227,304.961,252.2,304.961z"/>
			</g>
			<g>
				<path style="fill:#FFFFFF;" d="M261.044,304.961c-0.027,0-0.055-0.002-0.081-0.007c-0.273-0.044-0.458-0.301-0.413-0.573
					c0.768-4.705,0.861-9.487,0.278-14.213c-0.034-0.274,0.161-0.524,0.435-0.558c0.278-0.042,0.523,0.16,0.558,0.434
					c0.595,4.82,0.499,9.698-0.284,14.496C261.496,304.787,261.284,304.961,261.044,304.961z"/>
			</g>
			<g>
				<path style="fill:#594399;" d="M222.185,300.427c-0.481,0-0.906-0.349-0.986-0.839c-0.089-0.545,0.281-1.059,0.826-1.148
					c3.211-0.524,6.303-2.018,8.707-4.207c2.405-2.189,4.182-5.129,5.004-8.275c0.14-0.533,0.684-0.853,1.22-0.715
					c0.535,0.14,0.854,0.687,0.715,1.221c-0.919,3.517-2.905,6.801-5.592,9.248c-2.688,2.447-6.143,4.117-9.731,4.703
					C222.292,300.423,222.238,300.427,222.185,300.427z"/>
			</g>
			<g>
				<path style="fill:#594399;" d="M291.617,300.427c-0.054,0-0.107-0.004-0.162-0.013c-3.588-0.586-7.044-2.256-9.731-4.703
					c-2.689-2.448-4.675-5.732-5.593-9.248c-0.14-0.535,0.181-1.081,0.715-1.221c0.534-0.134,1.081,0.181,1.221,0.715
					c0.82,3.146,2.598,6.085,5.003,8.275c2.405,2.19,5.498,3.684,8.708,4.207c0.545,0.089,0.915,0.603,0.826,1.148
					C292.523,300.078,292.099,300.427,291.617,300.427z"/>
			</g>
			<g>
				<path style="fill:#FFB74A;" d="M288.447,225.535c-21.933-13.436-14.788-49.839-14.788-49.839l-4.603-1.216
					c-0.361,4.17-1.282,8.423-3.304,12.088c-2.022,3.665-5.668,6.67-9.846,6.902c-4.303,0.239-7.194-2.718-9.442-6.396
					c-2.248-3.677-2.872-8.016-3.54-12.417l-4.965,1.493c0,0,9.497,35.722-13.852,49.385l-4.227,62.998
					c0,0,31.802,11.546,72.887-3.081L288.447,225.535z"/>
			</g>
			<g>
				<path style="fill:#1B141C;" d="M279.09,135.155c0.126,1.145,0.25,2.322-0.047,3.435c-0.298,1.113-1.117,2.164-2.247,2.388
					c-0.853,0.169-1.737-0.153-2.463-0.631c-1.254-0.824-2.162-2.097-2.785-3.462c-0.623-1.366-1.196-2.539-1.554-3.996
					c0.104,1.074,0.205,2.186-0.138,3.21c-0.343,1.023-1.258,1.938-2.337,1.923c-0.684-0.01-1.31-0.38-1.855-0.795
					c-1.554-1.186-2.802-2.666-3.42-4.52c0.11,0.857,0.22,1.727,0.093,2.582c-0.127,0.855-0.524,1.707-1.239,2.193
					c-0.696,0.473-1.594,0.54-2.431,0.452c-2.713-0.285-5.146-1.96-6.195-4.478c0.282,0.837,0.567,1.686,0.624,2.568
					c0.057,0.882-0.14,1.815-0.721,2.48c-0.658,0.753-1.704,1.053-2.702,1.099c-2.657,0.122-5.248-1.187-6.446-3.561
					c0.994,1.281,0.545,3.304-0.699,4.344c-1.244,1.04-3.038,1.214-4.614,0.833c-2.534-0.612-4.69-2.601-5.503-5.078
					c3.377-5.9,6.956-12.3,12.85-15.687c3.678-2.114,7.847-5.12,12.089-5.104c3.475,0.013,7.155,2.77,10.203,4.438
					c2.82,1.543,5.102,3.937,6.925,6.585C276.299,129.02,278.737,131.96,279.09,135.155z"/>
			</g>
			<g>
				<path style="fill:#801400;" d="M218.283,363.551c-1.452,0-2.902-0.346-4.187-1.055c-0.242-0.133-0.33-0.438-0.197-0.679
					c0.134-0.241,0.438-0.332,0.679-0.196c2.688,1.48,6.35,1.131,8.708-0.831c0.212-0.178,0.527-0.147,0.704,0.063
					c0.177,0.213,0.148,0.527-0.064,0.704C222.348,362.872,220.315,363.551,218.283,363.551z"/>
			</g>
			<g>
				<path style="fill:#801400;" d="M295.61,363.551c-2.032,0-4.065-0.679-5.644-1.993c-0.212-0.177-0.24-0.491-0.064-0.704
					c0.177-0.212,0.493-0.239,0.704-0.063c2.357,1.963,6.021,2.313,8.708,0.831c0.24-0.135,0.546-0.046,0.679,0.196
					c0.134,0.241,0.046,0.546-0.196,0.679C298.514,363.204,297.063,363.551,295.61,363.551z"/>
			</g>
			<g>
				<polygon style="fill:#801400;" points="208.925,398.366 230.357,401.517 231.467,396.488 209.238,395.205 				"/>
			</g>
			<g>
				<polygon style="fill:#801400;" points="304.918,398.326 283.471,401.479 282.429,396.757 304.691,396.037 				"/>
			</g>
			<g>
				<path style="fill:#FF9029;" d="M258.592,215.804l3.444,6.978c0.379,0.767,1.11,1.299,1.957,1.422l7.7,1.119
					c2.132,0.31,2.983,2.929,1.44,4.433l-5.572,5.431c-0.613,0.597-0.892,1.457-0.747,2.3l1.315,7.669
					c0.364,2.123-1.864,3.742-3.771,2.74l-6.887-3.621c-0.757-0.398-1.661-0.398-2.419,0l-6.887,3.621
					c-1.906,1.002-4.135-0.617-3.77-2.74l1.315-7.669c0.145-0.843-0.135-1.703-0.747-2.3l-5.572-5.431
					c-1.542-1.503-0.691-4.123,1.44-4.433l7.7-1.119c0.846-0.123,1.578-0.655,1.957-1.422l3.444-6.978
					C254.885,213.872,257.639,213.872,258.592,215.804z"/>
			</g>
			<g>
				<ellipse style="fill:#1B141C;" cx="248.263" cy="147.836" rx="1.959" ry="2.533"/>
			</g>
			<g>
				<path style="fill:#1B141C;" d="M250.177,143.34c0.493-0.071,1.005-0.163,1.403-0.462c0.398-0.299,0.638-0.869,0.409-1.311
					c-0.237-0.457-0.826-0.577-1.338-0.626c-1.921-0.182-3.869-0.08-5.76,0.302c-0.609,0.123-1.231,0.284-1.722,0.665
					c-0.434,0.337-0.947,1.051-0.381,1.471c0.494,0.366,1.578,0.238,2.147,0.256C246.687,143.688,248.443,143.589,250.177,143.34z"
					/>
			</g>
			<g>
				<ellipse style="fill:#1B141C;" cx="264.261" cy="147.836" rx="1.959" ry="2.533"/>
			</g>
			<g>
				<path style="fill:#1B141C;" d="M262.348,143.34c-0.493-0.071-1.005-0.163-1.403-0.462c-0.398-0.299-0.638-0.869-0.409-1.311
					c0.237-0.457,0.826-0.577,1.338-0.626c1.921-0.182,3.869-0.08,5.76,0.302c0.609,0.123,1.231,0.284,1.722,0.665
					c0.434,0.337,0.947,1.051,0.381,1.471c-0.494,0.366-1.578,0.238-2.147,0.256C265.838,143.688,264.082,143.589,262.348,143.34z"
					/>
			</g>
			<g>
				<path style="fill:#1B141C;" d="M255.856,157.053c-0.421,0-0.852-0.093-1.256-0.279c-0.722-0.33-1.277-0.917-1.524-1.608
					c-0.334-0.935-0.152-1.928,0.069-2.777c0.538-2.061,1.432-3.988,2.656-5.728c0.135-0.191,0.4-0.236,0.59-0.103
					c0.191,0.135,0.237,0.399,0.103,0.59c-1.167,1.658-2.018,3.493-2.53,5.455c-0.189,0.724-0.347,1.56-0.091,2.278
					c0.17,0.477,0.564,0.887,1.079,1.124c0.516,0.236,1.083,0.267,1.556,0.084c0.215-0.084,0.464,0.024,0.547,0.243
					c0.084,0.218-0.024,0.463-0.243,0.547C256.512,156.995,256.187,157.053,255.856,157.053z"/>
			</g>
			<g>
				<path style="fill:#FFFFFF;" d="M259.248,158.817h-5.972c-1.591,0-2.881,1.29-2.881,2.881c0,1.591,1.29,2.881,2.881,2.881h5.972
					c1.591,0,2.881-1.29,2.881-2.881C262.129,160.107,260.839,158.817,259.248,158.817z"/>
				<path style="fill:#801400;" d="M259.248,159.317c1.313,0,2.381,1.068,2.381,2.381c0,1.313-1.068,2.381-2.381,2.381h-5.972
					c-1.313,0-2.381-1.068-2.381-2.381c0-1.313,1.068-2.381,2.381-2.381H259.248 M259.248,158.817h-5.972
					c-1.591,0-2.881,1.29-2.881,2.881c0,1.591,1.29,2.881,2.881,2.881h5.972c1.591,0,2.881-1.29,2.881-2.881
					C262.129,160.107,260.839,158.817,259.248,158.817L259.248,158.817z"/>
			</g>
			<g>
				<path style="fill:#B7422A;" d="M247.043,158.499c0,2.32-1.2,4.35-3.02,5.5c-3.69-2.62-6.11-6.73-6.72-11.18
					c0.95-0.54,2.04-0.85,3.21-0.85C244.123,151.969,247.043,154.889,247.043,158.499z"/>
			</g>
			<g>
				<path style="fill:#B7422A;" d="M275.703,153.119c-0.09,0.64-0.22,1.28-0.39,1.9c-0.22,0.78-0.49,1.54-0.82,2.28
					c-0.12,0.27-0.24,0.53-0.38,0.79c-1.23,2.41-3.07,4.58-5.32,6.09c-1.98-1.12-3.32-3.24-3.32-5.68c0-3.61,2.93-6.53,6.53-6.53
					C273.383,151.969,274.653,152.389,275.703,153.119z"/>
			</g>
			<g>
				<path style="fill:#FF9029;" d="M286.433,285.527c-0.214,0-0.412-0.139-0.478-0.354c-0.08-0.264,0.068-0.543,0.333-0.624
					c1.278-0.39,2.556-0.804,3.798-1.229c0.261-0.091,0.545,0.049,0.635,0.311c0.09,0.261-0.049,0.546-0.311,0.635
					c-1.253,0.43-2.541,0.848-3.831,1.241C286.53,285.521,286.48,285.527,286.433,285.527z"/>
			</g>
			<g>
				<path style="fill:#FF9029;" d="M251.989,290.612c-3.37,0-6.752-0.141-10.138-0.421c-0.275-0.022-0.48-0.264-0.457-0.539
					c0.023-0.275,0.259-0.481,0.54-0.457c12.457,1.03,24.849,0.145,36.827-2.631c0.273-0.063,0.538,0.106,0.601,0.374
					c0.063,0.27-0.105,0.538-0.374,0.601C270.164,289.585,261.119,290.612,251.989,290.612z"/>
			</g>
			<g>
				<path style="fill:#FF9029;" d="M237.456,289.742c-0.02,0-0.04-0.001-0.061-0.004c-9.439-1.141-15.306-3.034-15.364-3.053
					c-0.262-0.086-0.406-0.368-0.32-0.631c0.086-0.263,0.366-0.406,0.63-0.32c0.057,0.018,5.841,1.883,15.174,3.012
					c0.274,0.033,0.469,0.282,0.437,0.556C237.921,289.556,237.705,289.742,237.456,289.742z"/>
			</g>
			<g>
				<path style="fill:#FF9029;" d="M279.989,279.91c-0.019,0-0.036-0.001-0.054-0.003c-18.921-2.024-36.939-11.416-49.434-25.767
					c-0.182-0.208-0.16-0.523,0.049-0.705c0.208-0.183,0.524-0.161,0.705,0.049c12.332,14.162,30.114,23.431,48.786,25.429
					c0.275,0.029,0.474,0.275,0.444,0.55C280.458,279.72,280.241,279.91,279.989,279.91z"/>
			</g>
			<g>
				<path style="fill:#FF9029;" d="M277.928,277.051c-0.074,0-0.15-0.017-0.221-0.052c-9.248-4.559-17.802-10.396-25.423-17.346
					c-0.204-0.185-0.219-0.502-0.033-0.706c0.186-0.205,0.502-0.22,0.706-0.032c7.552,6.886,16.028,12.669,25.191,17.188
					c0.248,0.122,0.35,0.422,0.228,0.669C278.289,276.948,278.111,277.051,277.928,277.051z"/>
			</g>
			<g>
				<path style="fill:#FF9029;" d="M255.44,196.62c-0.923,0-1.837-0.104-2.724-0.315c-0.269-0.064-0.434-0.334-0.37-0.603
					c0.065-0.268,0.335-0.431,0.602-0.37c3.613,0.865,7.739-0.24,10.777-2.879c2.811-2.441,4.688-6.053,5.281-10.17
					c0.039-0.274,0.296-0.47,0.566-0.423c0.273,0.039,0.463,0.293,0.424,0.566c-0.629,4.355-2.623,8.184-5.615,10.782
					C261.847,195.411,258.596,196.62,255.44,196.62z"/>
			</g>
			<g>
				<path style="fill:#FF9029;" d="M250.311,195.429c-0.053,0-0.106-0.008-0.159-0.026c-1.425-0.478-2.719-1.394-3.644-2.58
					c-0.169-0.218-0.131-0.532,0.087-0.702c0.218-0.169,0.532-0.131,0.702,0.087c0.805,1.033,1.932,1.831,3.172,2.247
					c0.262,0.088,0.403,0.371,0.315,0.633C250.715,195.297,250.52,195.429,250.311,195.429z"/>
			</g>
		</g>
		<g>
			<g>
				<path style="fill:#FFFFFF;" d="M220.104,128.342c-0.637-0.806-1.513-1.395-2.435-1.85c-0.81-0.4-1.844-0.686-2.566-0.144
					c-0.627,0.47-0.729,1.435-0.37,2.131c0.36,0.697,1.077,1.148,1.824,1.388c0.746,0.24,1.536,0.3,2.311,0.417
					c0.641,0.096,1.852,0.748,2.127,0.209C221.253,129.986,220.394,128.709,220.104,128.342z"/>
			</g>
			<g>
				<path style="fill:#FFFFFF;" d="M288.258,130.469c0.882-0.528,1.91-0.768,2.933-0.867c0.9-0.087,1.967,0.012,2.451,0.775
					c0.419,0.662,0.173,1.6-0.41,2.124c-0.583,0.524-1.414,0.691-2.197,0.651c-0.783-0.04-1.543-0.264-2.309-0.43
					c-0.634-0.137-1.996,0.043-2.063-0.559C286.601,131.598,287.857,130.709,288.258,130.469z"/>
			</g>
			<g>
				<path style="fill:#FFFFFF;" d="M224.067,143.042c-0.669-0.13-1.364-0.046-2.024,0.123c-0.58,0.149-1.223,0.452-1.352,1.038
					c-0.112,0.508,0.254,1.036,0.736,1.231c0.482,0.195,1.038,0.111,1.517-0.091c0.479-0.202,0.902-0.513,1.342-0.79
					c0.364-0.229,1.254-0.425,1.159-0.815C225.356,143.371,224.372,143.1,224.067,143.042z"/>
			</g>
			<g>
				<path style="fill:#FFFFFF;" d="M226.935,119.923c-0.137-0.668-0.48-1.277-0.89-1.822c-0.36-0.479-0.887-0.956-1.477-0.85
					c-0.512,0.092-0.859,0.632-0.854,1.152c0.005,0.52,0.296,1.001,0.666,1.365c0.37,0.365,0.82,0.636,1.245,0.936
					c0.351,0.248,0.873,0.995,1.197,0.758C227.125,121.239,226.997,120.226,226.935,119.923z"/>
			</g>
			<g>
				<path style="fill:#FFFFFF;" d="M288.749,145.215c0.669-0.13,1.364-0.046,2.024,0.124c0.58,0.149,1.223,0.452,1.352,1.038
					c0.112,0.508-0.254,1.036-0.736,1.231c-0.482,0.194-1.038,0.111-1.517-0.092c-0.479-0.202-0.902-0.514-1.342-0.79
					c-0.364-0.229-1.254-0.425-1.159-0.815C287.461,145.544,288.445,145.274,288.749,145.215z"/>
			</g>
			<g>
				<path style="fill:#FFFFFF;" d="M288.186,118.891c0.371-0.572,0.913-1.014,1.493-1.371c0.51-0.314,1.175-0.567,1.685-0.253
					c0.443,0.272,0.57,0.902,0.375,1.384c-0.194,0.482-0.64,0.824-1.118,1.028c-0.478,0.204-0.996,0.293-1.5,0.418
					c-0.417,0.103-1.176,0.608-1.391,0.269C287.529,120.047,288.017,119.151,288.186,118.891z"/>
			</g>
		</g>
	</g>
</g>
</svg>
